G04 DipTrace 4.2.0.1*
G04 2 - Bottom.gbr*
%MOIN*%
G04 #@! TF.FileFunction,Copper,L2,Bot*
G04 #@! TF.Part,Single*
%AMOUTLINE6*
4,1,4,
0.035355,0.0,
0.0,-0.035355,
-0.035355,0.0,
0.0,0.035355,
0.035355,0.0,
0*%
%AMOUTLINE9*
4,1,4,
0.0,-0.035355,
-0.035355,0.0,
0.0,0.035355,
0.035355,0.0,
0.0,-0.035355,
0*%
%AMOUTLINE12*
4,1,4,
-0.019177,0.046295,
0.046295,0.019177,
0.019177,-0.046295,
-0.046295,-0.019177,
-0.019177,0.046295,
0*%
%AMOUTLINE15*
4,1,4,
0.046296,-0.019176,
-0.019176,-0.046296,
-0.046296,0.019176,
0.019176,0.046296,
0.046296,-0.019176,
0*%
G04 #@! TA.AperFunction,Conductor*
%ADD15C,0.019685*%
G04 #@! TA.AperFunction,CopperBalancing*
%ADD17C,0.007874*%
G04 #@! TA.AperFunction,ViaPad*
%ADD18C,0.017717*%
G04 #@! TA.AperFunction,ComponentPad*
%ADD21C,0.05*%
%ADD22R,0.05X0.05*%
%ADD26O,0.07874X0.035433*%
%ADD27O,0.059055X0.035433*%
%ADD32R,0.062992X0.062992*%
%ADD33C,0.070866*%
%ADD81OUTLINE6*%
%ADD84OUTLINE9*%
%ADD87OUTLINE12*%
%ADD90OUTLINE15*%
%FSLAX26Y26*%
G04*
G70*
G90*
G75*
G01*
G04 Bottom*
%LPD*%
G36*
X1733606Y638143D2*
X1705211Y655710D1*
X1703444Y657478D1*
X1728192Y682226D1*
X1729959Y680458D1*
X1747526Y652063D1*
X1733606Y638143D1*
G37*
X1613227Y2743702D2*
D18*
Y2762403D1*
D15*
Y2865749D1*
X1680156Y2932678D1*
X1804959D1*
X2235274D1*
X2624308Y2543644D1*
X2943936Y2224017D1*
Y1693702D1*
Y1259450D1*
X2555719Y871234D1*
X2239211Y554726D1*
X1830944D1*
X1704959Y680710D1*
G36*
X2488461Y924572D2*
X2472797Y930121D1*
X2471066Y931925D1*
X2495661Y956521D1*
X2497391Y954717D1*
X2502381Y938492D1*
X2488461Y924572D1*
G37*
X2467636Y960316D2*
D15*
Y959316D1*
X2555719Y871234D1*
G36*
X2857951Y1683860D2*
X2842951Y1676202D1*
X2840451D1*
Y1711202D1*
X2842951D1*
X2857951Y1703545D1*
Y1683860D1*
G37*
X2817951Y1693702D2*
D15*
X2943936D1*
G36*
X2572938Y2478354D2*
X2568037Y2462043D1*
X2566318Y2460227D1*
X2541719Y2484827D1*
X2543437Y2486643D1*
X2559018Y2492274D1*
X2572938Y2478354D1*
G37*
X2538345Y2456379D2*
D15*
Y2457681D1*
X2624308Y2543644D1*
G36*
X1814802Y2846694D2*
X1822459Y2831694D1*
Y2829194D1*
X1787459D1*
Y2831694D1*
X1795117Y2846694D1*
X1814802D1*
G37*
X1804959Y2806694D2*
D15*
Y2932678D1*
X1613227Y2649214D2*
D18*
Y2667915D1*
D15*
Y2725001D1*
D18*
Y2743702D1*
G36*
X1526022Y1212993D2*
X1508916Y1231891D1*
X1508955Y1235041D1*
X1551937D1*
X1551896Y1231891D1*
X1533896Y1212993D1*
X1526022D1*
G37*
G36*
X1417765Y1050940D2*
X1413818Y1043791D1*
X1411591Y1041563D1*
X1402820Y1050333D1*
X1405049Y1052560D1*
X1412197Y1056508D1*
X1417765Y1050940D1*
G37*
X1404959Y1043702D2*
D17*
X1529959Y1168702D1*
Y1262797D1*
X1530550Y1263387D1*
D18*
X1404959Y1043702D3*
X1613227Y2743702D3*
Y2727954D3*
Y2712206D3*
Y2696458D3*
Y2680710D3*
Y2664962D3*
Y2649214D3*
X454959Y1843702D3*
X554959D3*
Y1743702D3*
X454959D3*
Y1643702D3*
X554959D3*
X454959Y1943702D3*
X554959D3*
X454959Y2043702D3*
X554959D3*
X654959D3*
Y2143702D3*
X554959D3*
Y2243702D3*
X654959D3*
Y2343702D3*
X854959Y2443702D3*
X954959Y2543702D3*
X1054959Y2643702D3*
X1154959D3*
X1054959Y2543702D3*
X954959Y2443702D3*
X1054959D3*
X1154959Y2543702D3*
Y2443702D3*
Y2343702D3*
X1054959D3*
X954959D3*
X854959D3*
Y2243702D3*
X954959D3*
X1054959D3*
X1154959D3*
Y2143702D3*
X1054959D3*
X954959D3*
X854959D3*
Y2043702D3*
X954959D3*
Y1943702D3*
X854959D3*
X1054959D3*
Y1843702D3*
X954959D3*
X854959D3*
Y1743702D3*
X954959D3*
X1054959D3*
Y1643702D3*
X954959D3*
X854959D3*
Y1543702D3*
X954959D3*
X1054959D3*
Y1443702D3*
X954959D3*
X854959D3*
X754959D3*
Y1543702D3*
X654959Y1443702D3*
X1254959Y1143702D3*
X554959Y1543702D3*
Y1443702D3*
X454959D3*
Y1543702D3*
X554959Y1343702D3*
Y1243702D3*
X654959D3*
X754959D3*
Y1343702D3*
X654959D3*
Y1143702D3*
X754959D3*
X854959D3*
Y1243702D3*
Y1343702D3*
X954959D3*
Y1243702D3*
Y1143702D3*
Y1043702D3*
X854959D3*
X754959D3*
X854959Y943702D3*
X954959D3*
Y843702D3*
X1054959D3*
Y743702D3*
X1154959D3*
Y643702D3*
X1254959D3*
Y543702D3*
X1354959D3*
Y643702D3*
X1454959Y543702D3*
Y643702D3*
X1554959D3*
Y543702D3*
Y443702D3*
X1654959D3*
Y543702D3*
X1754959Y443702D3*
Y543702D3*
X1854959Y443702D3*
X1954959D3*
Y643702D3*
X2054959D3*
X2154959D3*
X2254959D3*
X2454959D3*
X2554959Y743702D3*
X2354959D3*
X2254959D3*
X2154959D3*
Y843702D3*
X2254959D3*
X2354959D3*
X2454959D3*
X2354959Y943702D3*
X2254959D3*
X2154959D3*
X2054959Y843702D3*
X1954959D3*
X1854959D3*
Y943702D3*
X1954959D3*
Y1043702D3*
X1854959D3*
X1754959D3*
X1654959Y943702D3*
X1554959Y843702D3*
Y943702D3*
Y1043702D3*
X1654959D3*
Y1143702D3*
X1754959D3*
X1854959D3*
X1954959D3*
X2254959D3*
X2354959D3*
X2254959Y1043702D3*
X2354959D3*
X2054959Y943702D3*
Y743702D3*
X1954959D3*
X2654959Y843702D3*
X2754959Y943702D3*
X2854959Y1043702D3*
X2454959Y1143702D3*
X2554959D3*
X2454959Y1043702D3*
X2654959Y1143702D3*
Y1043702D3*
X2754959Y1143702D3*
X2854959Y1243702D3*
X2754959D3*
X2654959D3*
X2554959D3*
X2454959D3*
X2854959Y1343702D3*
X2754959D3*
X2654959D3*
X2554959D3*
X2454959D3*
X2354959D3*
X2254959D3*
X2154959D3*
X2054959D3*
X1954959D3*
X1854959D3*
X1754959D3*
X1654959D3*
X1554959D3*
X1454959D3*
X1354959D3*
X1254959D3*
X1354959Y1443702D3*
X1454959D3*
Y1543702D3*
X1554959Y1443702D3*
Y1543702D3*
Y1643702D3*
X1654959D3*
Y1543702D3*
Y1443702D3*
X1754959D3*
Y1543702D3*
Y1643702D3*
X1854959D3*
Y1543702D3*
Y1443702D3*
X1954959D3*
Y1543702D3*
Y1643702D3*
X2054959D3*
Y1543702D3*
Y1443702D3*
X2154959D3*
Y1543702D3*
Y1643702D3*
X2254959D3*
Y1543702D3*
Y1443702D3*
X2354959D3*
Y1543702D3*
Y1643702D3*
X2454959D3*
Y1543702D3*
Y1443702D3*
X2554959D3*
Y1543702D3*
Y1643702D3*
X2654959D3*
Y1543702D3*
Y1443702D3*
X2754959D3*
Y1543702D3*
X2854959D3*
Y1443702D3*
X2754959Y1643702D3*
X2854959D3*
Y1843702D3*
X2654959D3*
X2754959D3*
X2654959Y1743702D3*
X2754959D3*
X2554959D3*
Y1843702D3*
X2454959D3*
Y1743702D3*
X2354959D3*
Y1843702D3*
X2254959D3*
Y1743702D3*
X2154959D3*
Y1843702D3*
X2054959D3*
Y1743702D3*
X1954959D3*
Y1843702D3*
X1854959D3*
Y1743702D3*
X1754959D3*
X1654959D3*
X1754959Y1843702D3*
X1854959Y1943702D3*
X1954959D3*
Y2043702D3*
X2054959D3*
Y1943702D3*
X2154959D3*
Y2043702D3*
X2254959D3*
Y1943702D3*
X2354959D3*
Y2043702D3*
X2454959D3*
Y1943702D3*
X2554959D3*
Y2043702D3*
X2654959Y1943702D3*
Y2043702D3*
X2754959Y1943702D3*
X2854959D3*
Y2043702D3*
X2754959D3*
X2654959Y2143702D3*
X2854959D3*
X2754959D3*
X2854959Y2243702D3*
X2754959D3*
X2654959D3*
X2554959D3*
X2654959Y2343702D3*
X2554959D3*
X2754959D3*
X3054959Y2043702D3*
Y1943702D3*
Y1843702D3*
Y1743702D3*
Y1643702D3*
Y1543702D3*
Y1443702D3*
X2754959Y2543702D3*
X2854959Y2443702D3*
X2654959Y2643702D3*
X2554959Y2743702D3*
X2454959Y2643702D3*
X2354959D3*
Y2543702D3*
Y2443702D3*
X2454959D3*
X2654959D3*
X2454959Y2343702D3*
X2254959Y2543702D3*
X2154959D3*
Y2443702D3*
X2054959D3*
Y2543702D3*
Y2643702D3*
X2154959D3*
X2254959D3*
Y2743702D3*
X2354959D3*
X2254959Y2843702D3*
X2154959D3*
Y2743702D3*
X2054959D3*
Y2843702D3*
X1954959D3*
Y2743702D3*
Y2643702D3*
X1854959D3*
Y2543702D3*
Y2743702D3*
Y2843702D3*
X1754959Y2743702D3*
Y2643702D3*
Y2543702D3*
Y2443702D3*
X1854959D3*
Y2343702D3*
X1754959D3*
X1954959D3*
X2054959D3*
X2154959D3*
X1454959D3*
X1554959D3*
X1354959D3*
X1454959Y2443702D3*
X1554959D3*
Y2643702D3*
X1454959D3*
Y2743702D3*
X1554959D3*
Y2843702D3*
X1454959D3*
X1254959Y2543702D3*
X1354959D3*
X1254959Y2843702D3*
X1354959D3*
X1054959Y2043702D3*
X1154959D3*
X1254959D3*
X1154959Y1843702D3*
Y1943702D3*
X1254959D3*
Y1843702D3*
X1154959Y1743702D3*
X1254959D3*
Y1643702D3*
X1154959D3*
Y1543702D3*
X1754959Y843702D3*
X1354959Y1643702D3*
Y1743702D3*
Y1843702D3*
Y1943702D3*
Y2043702D3*
Y2143702D3*
X1454959D3*
X1254959D3*
X1454959Y2043702D3*
Y1943702D3*
Y1843702D3*
Y1743702D3*
X1554959Y1843702D3*
Y1943702D3*
Y2043702D3*
Y2143702D3*
X1654959D3*
Y2043702D3*
Y1943702D3*
X1754959Y2043702D3*
Y2143702D3*
X1854959D3*
X1954959D3*
X2054959D3*
X2154959D3*
X2254959D3*
X2354959D3*
X1554959Y3043702D3*
X1654959D3*
X1854959D3*
X1754959D3*
X1954959D3*
X1154959Y2743702D3*
X1254959Y943702D3*
Y1043702D3*
X1054959Y1143702D3*
Y1243702D3*
X1254959Y843702D3*
X1354959Y1143702D3*
X1154959D3*
X2254959Y2343702D3*
X2354959D3*
X1254959D3*
X1554959Y1143702D3*
X1593236Y3056038D2*
D17*
X1916694D1*
X1539386Y3048295D2*
X1970543D1*
X1485529Y3040552D2*
X2024402D1*
X1451741Y3032810D2*
X2058189D1*
X1419823Y3025067D2*
X2090100D1*
X1387911Y3017324D2*
X2122018D1*
X1356846Y3009581D2*
X2153076D1*
X1334478Y3001839D2*
X2175445D1*
X1312101Y2994096D2*
X2197822D1*
X1289732Y2986353D2*
X2220190D1*
X1267356Y2978610D2*
X2242559D1*
X1244987Y2970867D2*
X2264936D1*
X1226856Y2963125D2*
X2283059D1*
X1209908Y2955382D2*
X2300014D1*
X1192953Y2947639D2*
X1663480D1*
X2251946D2*
X2316970D1*
X1175997Y2939896D2*
X1655745D1*
X2259689D2*
X2333925D1*
X1159042Y2932154D2*
X1648001D1*
X2267433D2*
X2350881D1*
X1142087Y2924411D2*
X1640259D1*
X2275176D2*
X2367836D1*
X1125285Y2916668D2*
X1632514D1*
X2282920D2*
X2384638D1*
X1111875Y2908925D2*
X1624772D1*
X1688039D2*
X1782360D1*
X1827556D2*
X2227395D1*
X2290663D2*
X2398047D1*
X1098465Y2901182D2*
X1617029D1*
X1680295D2*
X1782360D1*
X1827556D2*
X2235139D1*
X2298406D2*
X2411458D1*
X1085054Y2893440D2*
X1609285D1*
X1672552D2*
X1782360D1*
X1827556D2*
X2242882D1*
X2306150D2*
X2424869D1*
X1071643Y2885697D2*
X1601542D1*
X1664810D2*
X1782360D1*
X1827556D2*
X2250625D1*
X2313892D2*
X2438280D1*
X1058234Y2877954D2*
X1594360D1*
X1657066D2*
X1782360D1*
X1827556D2*
X2258369D1*
X2321629D2*
X2451689D1*
X1044823Y2870211D2*
X1591092D1*
X1649323D2*
X1782360D1*
X1827556D2*
X2266112D1*
X2329371D2*
X2465100D1*
X1031412Y2862469D2*
X1590630D1*
X1641579D2*
X1782360D1*
X1827556D2*
X2273856D1*
X2337114D2*
X2478510D1*
X1018001Y2854726D2*
X1590630D1*
X1635828D2*
X1782360D1*
X1827556D2*
X2281591D1*
X2344858D2*
X2491921D1*
X1006951Y2846983D2*
X1590630D1*
X1635828D2*
X1781037D1*
X1828879D2*
X2289333D1*
X2352601D2*
X2502970D1*
X996079Y2839240D2*
X1590630D1*
X1635828D2*
X1686642D1*
X1723280D2*
X1767203D1*
X1842713D2*
X2297077D1*
X2360345D2*
X2513844D1*
X985206Y2831497D2*
X1590630D1*
X1635828D2*
X1676760D1*
X1733161D2*
X1767203D1*
X1842713D2*
X2304820D1*
X2368088D2*
X2524717D1*
X974333Y2823755D2*
X1590630D1*
X1635828D2*
X1671378D1*
X1738543D2*
X1767203D1*
X1842713D2*
X2312564D1*
X2375831D2*
X2535589D1*
X963461Y2816012D2*
X1590630D1*
X1635828D2*
X1668394D1*
X1741520D2*
X1767203D1*
X1842713D2*
X2320307D1*
X2383575D2*
X2546462D1*
X952588Y2808269D2*
X1590630D1*
X1635828D2*
X1667240D1*
X1742680D2*
X1767203D1*
X1842713D2*
X2328050D1*
X2391318D2*
X2557335D1*
X941715Y2800526D2*
X1590630D1*
X1635828D2*
X1667724D1*
X1742196D2*
X1767203D1*
X1842713D2*
X2335794D1*
X2399062D2*
X2568207D1*
X930841Y2792783D2*
X1590630D1*
X1635828D2*
X1669924D1*
X1739997D2*
X1767203D1*
X1842713D2*
X2343537D1*
X2406804D2*
X2579081D1*
X919969Y2785041D2*
X1590630D1*
X1635828D2*
X1674207D1*
X1735714D2*
X1767203D1*
X1842713D2*
X2351281D1*
X2414547D2*
X2589954D1*
X910104Y2777298D2*
X1590630D1*
X1635828D2*
X1681759D1*
X1728163D2*
X1767203D1*
X1842713D2*
X2359024D1*
X2422291D2*
X2599819D1*
X901168Y2769555D2*
X1590630D1*
X1635828D2*
X2366766D1*
X2430034D2*
X2608755D1*
X892226Y2761812D2*
X1590638D1*
X1635820D2*
X2374510D1*
X2437770D2*
X2617689D1*
X883290Y2754070D2*
X1591614D1*
X1634844D2*
X2382253D1*
X2445513D2*
X2626625D1*
X874354Y2746327D2*
X1591614D1*
X1634844D2*
X2389997D1*
X2453256D2*
X2635560D1*
X865420Y2738584D2*
X1591614D1*
X1634844D2*
X2397732D1*
X2461000D2*
X2644495D1*
X856484Y2730841D2*
X1591423D1*
X1635028D2*
X2405475D1*
X2468743D2*
X2653430D1*
X847550Y2723098D2*
X1590630D1*
X1635828D2*
X2413219D1*
X2476487D2*
X2662365D1*
X838614Y2715356D2*
X1590630D1*
X1635828D2*
X2420962D1*
X2484230D2*
X2671308D1*
X829678Y2707613D2*
X1590630D1*
X1635828D2*
X2428706D1*
X2491972D2*
X2680244D1*
X820744Y2699870D2*
X1590630D1*
X1635828D2*
X2436449D1*
X2499717D2*
X2689178D1*
X813201Y2692127D2*
X1590630D1*
X1635828D2*
X2444192D1*
X2507459D2*
X2696722D1*
X805819Y2684385D2*
X1590630D1*
X1635828D2*
X2451936D1*
X2515203D2*
X2704104D1*
X798437Y2676642D2*
X1590630D1*
X1635828D2*
X2459678D1*
X2522946D2*
X2711486D1*
X791047Y2668899D2*
X1590630D1*
X1635828D2*
X2467423D1*
X2530689D2*
X2718867D1*
X783665Y2661156D2*
X1591614D1*
X1634844D2*
X2475165D1*
X2538433D2*
X2726249D1*
X776283Y2653413D2*
X1591614D1*
X1634844D2*
X2482908D1*
X2546176D2*
X2733631D1*
X768902Y2645671D2*
X1591915D1*
X1634535D2*
X2490652D1*
X2553912D2*
X2741013D1*
X761520Y2637928D2*
X1594937D1*
X1631521D2*
X2498395D1*
X2561655D2*
X2748395D1*
X754138Y2630185D2*
X1603971D1*
X1622479D2*
X2506139D1*
X2569398D2*
X2755785D1*
X746756Y2622442D2*
X2513874D1*
X2577142D2*
X2763167D1*
X739374Y2614699D2*
X2521617D1*
X2584885D2*
X2770549D1*
X732192Y2606957D2*
X2529361D1*
X2592629D2*
X2777731D1*
X726102Y2599214D2*
X2537104D1*
X2600371D2*
X2783820D1*
X720012Y2591471D2*
X2544848D1*
X2608114D2*
X2789911D1*
X713921Y2583728D2*
X2552591D1*
X2615858D2*
X2796001D1*
X707832Y2575986D2*
X2560333D1*
X2623601D2*
X2802083D1*
X701741Y2568243D2*
X1880516D1*
X1914133D2*
X2568077D1*
X2631345D2*
X2808173D1*
X695652Y2560500D2*
X1877310D1*
X1932825D2*
X2451021D1*
X2484245D2*
X2575820D1*
X2639088D2*
X2814264D1*
X689562Y2552757D2*
X1874102D1*
X1951518D2*
X2440240D1*
X2495026D2*
X2583564D1*
X2646831D2*
X2820353D1*
X683479Y2545014D2*
X1870896D1*
X1967451D2*
X2434518D1*
X2500755D2*
X2591307D1*
X2654575D2*
X2826444D1*
X677390Y2537272D2*
X1867689D1*
X1970697D2*
X2431312D1*
X2503961D2*
X2586302D1*
X2662318D2*
X2832533D1*
X671299Y2529529D2*
X1864483D1*
X1968673D2*
X2429959D1*
X2505314D2*
X2578558D1*
X2670054D2*
X2838623D1*
X665209Y2521786D2*
X1861277D1*
X1965467D2*
X1982093D1*
X2025991D2*
X2430259D1*
X2505007D2*
X2570815D1*
X2677797D2*
X2844706D1*
X659119Y2514043D2*
X1858070D1*
X1962261D2*
X1970928D1*
X2037148D2*
X2432259D1*
X2503014D2*
X2563071D1*
X2685539D2*
X2850795D1*
X653475Y2506301D2*
X1854864D1*
X1959054D2*
X1964247D1*
X2043839D2*
X2436280D1*
X2498993D2*
X2555328D1*
X2618596D2*
X2630016D1*
X2693283D2*
X2856440D1*
X648500Y2498558D2*
X1852602D1*
X1955840D2*
X1959909D1*
X2048176D2*
X2443339D1*
X2491927D2*
X2527454D1*
X2610852D2*
X2637759D1*
X2701026D2*
X2861415D1*
X643525Y2490815D2*
X1855364D1*
X1952634D2*
X1957256D1*
X2050828D2*
X2459717D1*
X2475556D2*
X2519710D1*
X2603109D2*
X2645503D1*
X2708770D2*
X2866390D1*
X638550Y2483072D2*
X1870450D1*
X1949427D2*
X1955996D1*
X2052081D2*
X2511967D1*
X2595366D2*
X2653245D1*
X2716513D2*
X2871373D1*
X633575Y2475329D2*
X1889143D1*
X1946220D2*
X1956026D1*
X2052059D2*
X2504231D1*
X2587630D2*
X2660990D1*
X2724256D2*
X2876348D1*
X628600Y2467587D2*
X1907836D1*
X1943014D2*
X1957341D1*
X2050744D2*
X2496488D1*
X2582986D2*
X2668732D1*
X2732000D2*
X2881323D1*
X623625Y2459844D2*
X1926722D1*
X1934940D2*
X1960063D1*
X2048021D2*
X2490744D1*
X2585946D2*
X2676475D1*
X2739743D2*
X2886298D1*
X618642Y2452101D2*
X1964484D1*
X2043600D2*
X2491029D1*
X2585669D2*
X2684219D1*
X2747487D2*
X2891273D1*
X613667Y2444358D2*
X1971298D1*
X2036780D2*
X2165164D1*
X2212469D2*
X2497295D1*
X2579395D2*
X2691962D1*
X2755230D2*
X2896248D1*
X608692Y2436615D2*
X1982786D1*
X2025291D2*
X2154776D1*
X2222857D2*
X2505039D1*
X2571651D2*
X2699706D1*
X2762972D2*
X2901223D1*
X603717Y2428873D2*
X2148417D1*
X2229217D2*
X2512782D1*
X2563908D2*
X2707449D1*
X2770717D2*
X2906198D1*
X598741Y2421130D2*
X2144303D1*
X2233337D2*
X2520525D1*
X2556164D2*
X2715192D1*
X2778459D2*
X2911181D1*
X593766Y2413387D2*
X2141819D1*
X2235822D2*
X2528269D1*
X2548421D2*
X2722936D1*
X2786196D2*
X2916156D1*
X588791Y2405644D2*
X2140711D1*
X2236921D2*
X2730678D1*
X2793938D2*
X2921131D1*
X584554Y2397902D2*
X2140888D1*
X2236752D2*
X2738423D1*
X2801681D2*
X2925369D1*
X580563Y2390159D2*
X2142357D1*
X2235283D2*
X2746157D1*
X2809425D2*
X2929360D1*
X576572Y2382416D2*
X2145256D1*
X2232385D2*
X2753900D1*
X2817168D2*
X2933350D1*
X572581Y2374673D2*
X2149900D1*
X2227732D2*
X2761644D1*
X2824912D2*
X2937341D1*
X568583Y2366930D2*
X2157083D1*
X2220550D2*
X2769387D1*
X2832655D2*
X2941332D1*
X564592Y2359188D2*
X2169547D1*
X2208085D2*
X2777131D1*
X2840398D2*
X2945323D1*
X560601Y2351445D2*
X2784874D1*
X2848142D2*
X2949314D1*
X556610Y2343702D2*
X2792617D1*
X2855885D2*
X2953304D1*
X552619Y2335959D2*
X2800361D1*
X2863629D2*
X2957295D1*
X548629Y2328217D2*
X2808104D1*
X2871371D2*
X2961294D1*
X544638Y2320474D2*
X2815848D1*
X2879114D2*
X2965285D1*
X540647Y2312731D2*
X2823591D1*
X2886858D2*
X2969276D1*
X536656Y2304988D2*
X2831333D1*
X2894601D2*
X2973266D1*
X532657Y2297245D2*
X2839077D1*
X2902337D2*
X2977257D1*
X528967Y2289503D2*
X2846820D1*
X2910080D2*
X2980955D1*
X525869Y2281760D2*
X2854564D1*
X2917823D2*
X2984054D1*
X522769Y2274017D2*
X2862299D1*
X2925567D2*
X2987154D1*
X519663Y2266274D2*
X1171339D1*
X2440946D2*
X2870042D1*
X2933310D2*
X2990252D1*
X516564Y2258531D2*
X1171339D1*
X2440946D2*
X2877786D1*
X2941054D2*
X2993350D1*
X513465Y2250789D2*
X1171339D1*
X2440946D2*
X2885529D1*
X2948797D2*
X2996450D1*
X510366Y2243046D2*
X1171339D1*
X2440946D2*
X2893273D1*
X2956539D2*
X2999549D1*
X507268Y2235303D2*
X1171339D1*
X2440946D2*
X2901016D1*
X2963383D2*
X3002655D1*
X504168Y2227560D2*
X1171339D1*
X2440946D2*
X2908759D1*
X2966244D2*
X3005755D1*
X501070Y2219818D2*
X1171339D1*
X2440946D2*
X2916503D1*
X2966537D2*
X3008853D1*
X497971Y2212075D2*
X1171339D1*
X2440946D2*
X2921339D1*
X2966537D2*
X3011951D1*
X494865Y2204332D2*
X1171339D1*
X2440946D2*
X2921339D1*
X2966537D2*
X3015051D1*
X491765Y2196589D2*
X1171339D1*
X2440946D2*
X2921339D1*
X2966537D2*
X3018150D1*
X488667Y2188846D2*
X1171339D1*
X2440946D2*
X2921339D1*
X2966537D2*
X3021248D1*
X485568Y2181104D2*
X1171339D1*
X2440946D2*
X2921339D1*
X2966537D2*
X3024348D1*
X482692Y2173361D2*
X2921339D1*
X2966537D2*
X3027231D1*
X480416Y2165618D2*
X2921339D1*
X2966537D2*
X3029499D1*
X478147Y2157875D2*
X2921339D1*
X2966537D2*
X3031776D1*
X475871Y2150133D2*
X2921339D1*
X2966537D2*
X3034051D1*
X473594Y2142390D2*
X2921339D1*
X2966537D2*
X3036320D1*
X471327Y2134647D2*
X2921339D1*
X2966537D2*
X3038596D1*
X469051Y2126904D2*
X2921339D1*
X2966537D2*
X3040871D1*
X466774Y2119161D2*
X2921339D1*
X2966537D2*
X3043140D1*
X464507Y2111419D2*
X2921339D1*
X2966537D2*
X3045416D1*
X462230Y2103676D2*
X2921339D1*
X2966537D2*
X3047685D1*
X459954Y2095933D2*
X2921339D1*
X2966537D2*
X3049961D1*
X457685Y2088190D2*
X2921339D1*
X2966537D2*
X3052236D1*
X455409Y2080448D2*
X2921339D1*
X2966537D2*
X3054505D1*
X453134Y2072705D2*
X2921339D1*
X2966537D2*
X3056781D1*
X450865Y2064962D2*
X2921339D1*
X2966537D2*
X3059058D1*
X448589Y2057219D2*
X2921339D1*
X2966537D2*
X3061325D1*
X446866Y2049476D2*
X2921339D1*
X2966537D2*
X3063056D1*
X445375Y2041734D2*
X2921339D1*
X2966537D2*
X3064547D1*
X443883Y2033991D2*
X2921339D1*
X2966537D2*
X3066039D1*
X442391Y2026248D2*
X2921339D1*
X2966537D2*
X3067531D1*
X440892Y2018505D2*
X2921339D1*
X2966537D2*
X3069024D1*
X439400Y2010762D2*
X2921339D1*
X2966537D2*
X3070514D1*
X437908Y2003020D2*
X2921339D1*
X2966537D2*
X3072007D1*
X436416Y1995277D2*
X2921339D1*
X2966537D2*
X3073499D1*
X434925Y1987534D2*
X2921339D1*
X2966537D2*
X3074990D1*
X433433Y1979791D2*
X2921339D1*
X2966537D2*
X3076482D1*
X431941Y1972049D2*
X2921339D1*
X2966537D2*
X3077974D1*
X430450Y1964306D2*
X2921339D1*
X2966537D2*
X3079466D1*
X428958Y1956563D2*
X2921339D1*
X2966537D2*
X3080965D1*
X427466Y1948820D2*
X2921339D1*
X2966537D2*
X3082457D1*
X425974Y1941077D2*
X474251D1*
X522777D2*
X628970D1*
X697189D2*
X2921339D1*
X2966537D2*
X3083949D1*
X424483Y1933335D2*
X463577D1*
X533450D2*
X618304D1*
X707854D2*
X2921339D1*
X2966537D2*
X3085440D1*
X424413Y1925592D2*
X458678D1*
X538348D2*
X613407D1*
X712753D2*
X2921339D1*
X2966537D2*
X3086348D1*
X424413Y1917849D2*
X456510D1*
X540517D2*
X611231D1*
X714929D2*
X2921339D1*
X2966537D2*
X3087085D1*
X424413Y1910106D2*
X456457D1*
X540571D2*
X611184D1*
X714975D2*
X2921339D1*
X2966537D2*
X3087832D1*
X424413Y1902364D2*
X458510D1*
X538509D2*
X613238D1*
X712923D2*
X2921339D1*
X2966537D2*
X3088570D1*
X424413Y1894621D2*
X463239D1*
X533789D2*
X617966D1*
X708193D2*
X2921339D1*
X2966537D2*
X3089308D1*
X424413Y1886878D2*
X473366D1*
X523661D2*
X628093D1*
X698066D2*
X2921339D1*
X2966537D2*
X3090046D1*
X424413Y1879135D2*
X629408D1*
X655021D2*
X2921339D1*
X2966537D2*
X3090785D1*
X424413Y1871392D2*
X620942D1*
X663487D2*
X2921339D1*
X2966537D2*
X3091522D1*
X424413Y1863650D2*
X617444D1*
X666986D2*
X2921339D1*
X2966537D2*
X3092268D1*
X424413Y1855907D2*
X616713D1*
X667715D2*
X2921339D1*
X2966537D2*
X3093007D1*
X424413Y1848164D2*
X618482D1*
X665948D2*
X2921339D1*
X2966537D2*
X3093744D1*
X424413Y1840421D2*
X623480D1*
X660949D2*
X2921339D1*
X2966537D2*
X3094483D1*
X424413Y1832678D2*
X2921339D1*
X2966537D2*
X3095220D1*
X424413Y1824936D2*
X2797385D1*
X2838514D2*
X2921339D1*
X2966537D2*
X3095959D1*
X424413Y1817193D2*
X2788619D1*
X2847287D2*
X2921339D1*
X2966537D2*
X3096705D1*
X424413Y1809450D2*
X2783720D1*
X2852186D2*
X2921339D1*
X2966537D2*
X3097444D1*
X424413Y1801707D2*
X2781075D1*
X2854831D2*
X2921339D1*
X2966537D2*
X3097720D1*
X424413Y1793965D2*
X2780199D1*
X2855707D2*
X2921339D1*
X2966537D2*
X3097720D1*
X424413Y1786222D2*
X2780961D1*
X2854938D2*
X2921339D1*
X2966537D2*
X3097720D1*
X424413Y1778479D2*
X2783475D1*
X2852424D2*
X2921339D1*
X2966537D2*
X3097720D1*
X424413Y1770736D2*
X2788196D1*
X2847711D2*
X2921339D1*
X2966537D2*
X3097720D1*
X424413Y1762993D2*
X2796585D1*
X2839322D2*
X2921339D1*
X2966537D2*
X3097720D1*
X424413Y1755251D2*
X2921339D1*
X2966537D2*
X3097720D1*
X424413Y1747508D2*
X2921339D1*
X2966537D2*
X3097720D1*
X424413Y1739765D2*
X2921339D1*
X2966537D2*
X3097720D1*
X424413Y1732022D2*
X2921339D1*
X2966537D2*
X3097720D1*
X424413Y1724280D2*
X2780199D1*
X2855707D2*
X2921339D1*
X2966537D2*
X3097720D1*
X424413Y1716537D2*
X2780199D1*
X2859614D2*
X2921339D1*
X2966537D2*
X3097720D1*
X424413Y1708794D2*
X2780199D1*
X2966537D2*
X3097720D1*
X424413Y1701051D2*
X2780199D1*
X2966537D2*
X3097720D1*
X424413Y1693308D2*
X2780199D1*
X2966537D2*
X3097720D1*
X424413Y1685566D2*
X2780199D1*
X2966537D2*
X3097720D1*
X424413Y1677823D2*
X2780199D1*
X2966537D2*
X3097428D1*
X424413Y1670080D2*
X2780199D1*
X2858068D2*
X2921339D1*
X2966537D2*
X3096690D1*
X424413Y1662337D2*
X2780199D1*
X2855707D2*
X2921339D1*
X2966537D2*
X3095951D1*
X424413Y1654594D2*
X639297D1*
X645131D2*
X2921339D1*
X2966537D2*
X3095214D1*
X424413Y1646852D2*
X623357D1*
X661072D2*
X2921339D1*
X2966537D2*
X3094467D1*
X424413Y1639109D2*
X618428D1*
X666001D2*
X2921339D1*
X2966537D2*
X3093730D1*
X424413Y1631366D2*
X616705D1*
X667723D2*
X2921339D1*
X2966537D2*
X3092991D1*
X424413Y1623623D2*
X617474D1*
X666946D2*
X2921339D1*
X2966537D2*
X3092253D1*
X424413Y1615881D2*
X621026D1*
X663402D2*
X2921339D1*
X2966537D2*
X3091514D1*
X424413Y1608138D2*
X629655D1*
X654774D2*
X2921339D1*
X2966537D2*
X3090777D1*
X424413Y1600395D2*
X473089D1*
X523938D2*
X627816D1*
X698343D2*
X2921339D1*
X2966537D2*
X3090038D1*
X424413Y1592652D2*
X463131D1*
X533896D2*
X617858D1*
X708308D2*
X2921339D1*
X2966537D2*
X3089293D1*
X424413Y1584909D2*
X458457D1*
X538571D2*
X613184D1*
X712976D2*
X2921339D1*
X2966537D2*
X3088554D1*
X424413Y1577167D2*
X456441D1*
X540585D2*
X611169D1*
X714991D2*
X2921339D1*
X2966537D2*
X3087816D1*
X424413Y1569424D2*
X456526D1*
X540501D2*
X611253D1*
X714906D2*
X2921339D1*
X2966537D2*
X3087077D1*
X424413Y1561681D2*
X458740D1*
X538286D2*
X613461D1*
X712699D2*
X2921339D1*
X2966537D2*
X3086340D1*
X424505Y1553938D2*
X463693D1*
X533335D2*
X618420D1*
X707739D2*
X2921339D1*
X2966537D2*
X3085409D1*
X425997Y1546196D2*
X474558D1*
X522470D2*
X629285D1*
X696874D2*
X2921339D1*
X2966537D2*
X3083917D1*
X427490Y1538453D2*
X2921339D1*
X2966537D2*
X3082425D1*
X428980Y1530710D2*
X2921339D1*
X2966537D2*
X3080934D1*
X430472Y1522967D2*
X2921339D1*
X2966537D2*
X3079442D1*
X431965Y1515224D2*
X2921339D1*
X2966537D2*
X3077950D1*
X433457Y1507482D2*
X2921339D1*
X2966537D2*
X3076459D1*
X434948Y1499739D2*
X2921339D1*
X2966537D2*
X3074967D1*
X436440Y1491996D2*
X2921339D1*
X2966537D2*
X3073475D1*
X437940Y1484253D2*
X2921339D1*
X2966537D2*
X3071983D1*
X439430Y1476510D2*
X2921339D1*
X2966537D2*
X3070492D1*
X440923Y1468768D2*
X2921339D1*
X2966537D2*
X3069000D1*
X442415Y1461025D2*
X2921339D1*
X2966537D2*
X3067508D1*
X443906Y1453282D2*
X2921339D1*
X2966537D2*
X3066016D1*
X445398Y1445539D2*
X2921339D1*
X2966537D2*
X3064525D1*
X446890Y1437797D2*
X2921339D1*
X2966537D2*
X3063033D1*
X448627Y1430054D2*
X2921339D1*
X2966537D2*
X3061295D1*
X450903Y1422311D2*
X2921339D1*
X2966537D2*
X3059018D1*
X453172Y1414568D2*
X2921339D1*
X2966537D2*
X3056743D1*
X455448Y1406825D2*
X2921339D1*
X2966537D2*
X3054475D1*
X457724Y1399083D2*
X2921339D1*
X2966537D2*
X3052198D1*
X459992Y1391340D2*
X2921339D1*
X2966537D2*
X3049923D1*
X462269Y1383597D2*
X2921339D1*
X2966537D2*
X3047654D1*
X464545Y1375854D2*
X2921339D1*
X2966537D2*
X3045378D1*
X466814Y1368112D2*
X2921339D1*
X2966537D2*
X3043102D1*
X469089Y1360369D2*
X2921339D1*
X2966537D2*
X3040833D1*
X471365Y1352626D2*
X2921339D1*
X2966537D2*
X3038558D1*
X473634Y1344883D2*
X2921339D1*
X2966537D2*
X3036281D1*
X475909Y1337140D2*
X2921339D1*
X2966537D2*
X3034013D1*
X478186Y1329398D2*
X2921339D1*
X2966537D2*
X3031736D1*
X480454Y1321655D2*
X2921339D1*
X2966537D2*
X3029461D1*
X482730Y1313912D2*
X2921339D1*
X2966537D2*
X3027193D1*
X485622Y1306169D2*
X1171339D1*
X2440946D2*
X2921339D1*
X2966537D2*
X3024301D1*
X488720Y1298427D2*
X1171339D1*
X2440946D2*
X2921339D1*
X2966537D2*
X3021202D1*
X491819Y1290684D2*
X1171339D1*
X2440946D2*
X2921339D1*
X2966537D2*
X3018104D1*
X494919Y1282941D2*
X1171339D1*
X2440946D2*
X2921339D1*
X2966537D2*
X3014997D1*
X498017Y1275198D2*
X1171339D1*
X2440946D2*
X2921339D1*
X2966537D2*
X3011898D1*
X501115Y1267455D2*
X1171339D1*
X2440946D2*
X2920308D1*
X2966537D2*
X3008799D1*
X504222Y1259713D2*
X1171339D1*
X2440946D2*
X2912566D1*
X2966537D2*
X3005701D1*
X507322Y1251970D2*
X1171339D1*
X2440946D2*
X2904822D1*
X2965214D2*
X3002601D1*
X510420Y1244227D2*
X1171339D1*
X2440946D2*
X2897079D1*
X2960346D2*
X2999503D1*
X513518Y1236484D2*
X1171339D1*
X2440946D2*
X2889336D1*
X2952602D2*
X2996404D1*
X516618Y1228741D2*
X1171339D1*
X2440946D2*
X2881592D1*
X2944860D2*
X2993304D1*
X519717Y1220999D2*
X1171339D1*
X2440946D2*
X2873849D1*
X2937117D2*
X2990198D1*
X522815Y1213256D2*
X1508853D1*
X1551466D2*
X2866105D1*
X2929373D2*
X2987100D1*
X525915Y1205513D2*
X1513266D1*
X1546652D2*
X2858362D1*
X2921630D2*
X2984000D1*
X529013Y1197770D2*
X1513266D1*
X1546652D2*
X2850627D1*
X2913886D2*
X2980902D1*
X532727Y1190028D2*
X1513266D1*
X1546652D2*
X2842883D1*
X2906143D2*
X2977188D1*
X536718Y1182285D2*
X1513266D1*
X1546652D2*
X2835140D1*
X2898400D2*
X2973197D1*
X540709Y1174542D2*
X1512521D1*
X1546652D2*
X2827396D1*
X2890664D2*
X2969206D1*
X544699Y1166799D2*
X1504777D1*
X1546538D2*
X2819654D1*
X2882921D2*
X2965215D1*
X548698Y1159056D2*
X1497034D1*
X1543392D2*
X2811911D1*
X2875177D2*
X2961224D1*
X552689Y1151314D2*
X1489291D1*
X1535849D2*
X2804167D1*
X2867434D2*
X2957234D1*
X556680Y1143571D2*
X1481547D1*
X1528106D2*
X2187587D1*
X2219727D2*
X2796424D1*
X2859692D2*
X2953243D1*
X560671Y1135828D2*
X1473804D1*
X1520370D2*
X2168894D1*
X2222934D2*
X2788680D1*
X2851948D2*
X2949252D1*
X564661Y1128085D2*
X1466060D1*
X1512627D2*
X2150209D1*
X2226140D2*
X2780937D1*
X2844205D2*
X2945261D1*
X568652Y1120343D2*
X1458318D1*
X1504883D2*
X2133530D1*
X2229346D2*
X2773194D1*
X2836461D2*
X2941262D1*
X572643Y1112600D2*
X1450575D1*
X1497140D2*
X2129801D1*
X2232554D2*
X2765450D1*
X2828718D2*
X2937272D1*
X576634Y1104857D2*
X1442831D1*
X1489398D2*
X2131577D1*
X2235768D2*
X2757707D1*
X2820975D2*
X2933281D1*
X580633Y1097114D2*
X1435088D1*
X1481654D2*
X2075559D1*
X2117289D2*
X2134783D1*
X2238974D2*
X2749963D1*
X2813231D2*
X2929290D1*
X584623Y1089371D2*
X1427345D1*
X1473911D2*
X2063886D1*
X2128961D2*
X2137990D1*
X2242181D2*
X2742220D1*
X2805488D2*
X2925299D1*
X588875Y1081629D2*
X1419601D1*
X1466167D2*
X2056996D1*
X2135850D2*
X2141197D1*
X2245387D2*
X2734486D1*
X2797744D2*
X2921047D1*
X593850Y1073886D2*
X1411866D1*
X1458424D2*
X2052529D1*
X2140318D2*
X2144403D1*
X2247848D2*
X2726741D1*
X2790001D2*
X2916072D1*
X598825Y1066143D2*
X1404100D1*
X1450681D2*
X2049769D1*
X2143079D2*
X2147609D1*
X2245510D2*
X2526008D1*
X2550690D2*
X2718999D1*
X2782259D2*
X2911097D1*
X603801Y1058400D2*
X1389420D1*
X1442937D2*
X2048423D1*
X2144424D2*
X2150816D1*
X2231277D2*
X2512713D1*
X2563978D2*
X2711255D1*
X2774522D2*
X2906122D1*
X608776Y1050657D2*
X1384537D1*
X1435194D2*
X2048369D1*
X2144478D2*
X2154022D1*
X2212584D2*
X2506231D1*
X2570459D2*
X2703512D1*
X2766780D2*
X2901147D1*
X613751Y1042915D2*
X1383361D1*
X1427797D2*
X2049592D1*
X2143256D2*
X2157228D1*
X2193891D2*
X2502555D1*
X2574135D2*
X2695769D1*
X2759035D2*
X2896164D1*
X618726Y1035172D2*
X1385176D1*
X1424744D2*
X2052214D1*
X2140634D2*
X2164072D1*
X2175198D2*
X2500825D1*
X2575873D2*
X2688025D1*
X2751293D2*
X2891189D1*
X623701Y1027429D2*
X1391173D1*
X1418747D2*
X2056497D1*
X2136350D2*
X2500764D1*
X2575927D2*
X2680282D1*
X2743550D2*
X2886214D1*
X628684Y1019686D2*
X1888982D1*
X1934318D2*
X2063118D1*
X2129730D2*
X2502370D1*
X2574319D2*
X2672538D1*
X2735806D2*
X2881239D1*
X633659Y1011944D2*
X1878155D1*
X1945144D2*
X2074106D1*
X2118741D2*
X2505900D1*
X2570798D2*
X2664795D1*
X2728063D2*
X2876264D1*
X638634Y1004201D2*
X1871604D1*
X1951696D2*
X2458457D1*
X2476818D2*
X2512121D1*
X2564570D2*
X2657052D1*
X2720319D2*
X2871289D1*
X643609Y996458D2*
X1867360D1*
X1955940D2*
X2450713D1*
X2484560D2*
X2524455D1*
X2552235D2*
X2649308D1*
X2712576D2*
X2866314D1*
X648584Y988715D2*
X1864776D1*
X1958524D2*
X2442970D1*
X2492303D2*
X2641566D1*
X2704833D2*
X2861339D1*
X653559Y980972D2*
X1863576D1*
X1959723D2*
X2435226D1*
X2500047D2*
X2633822D1*
X2697089D2*
X2856364D1*
X659219Y973230D2*
X1863668D1*
X1959631D2*
X2427483D1*
X2507790D2*
X2626079D1*
X2689346D2*
X2850696D1*
X665308Y965487D2*
X1865045D1*
X1958255D2*
X2420701D1*
X2514572D2*
X2618344D1*
X2681602D2*
X2844606D1*
X671399Y957744D2*
X1867836D1*
X1955463D2*
X2419801D1*
X2515465D2*
X2610600D1*
X2673860D2*
X2838516D1*
X677490Y950001D2*
X1872349D1*
X1950950D2*
X2424885D1*
X2512150D2*
X2602857D1*
X2666117D2*
X2832433D1*
X683579Y942259D2*
X1879308D1*
X1943983D2*
X2432627D1*
X2516325D2*
X2595113D1*
X2658381D2*
X2826344D1*
X689669Y934516D2*
X1891173D1*
X1932118D2*
X2440370D1*
X2524068D2*
X2587370D1*
X2650638D2*
X2820253D1*
X695760Y926773D2*
X2448106D1*
X2531812D2*
X2579627D1*
X2642894D2*
X2814163D1*
X701841Y919030D2*
X2455849D1*
X2539555D2*
X2571883D1*
X2635151D2*
X2808073D1*
X707932Y911287D2*
X2484031D1*
X2547299D2*
X2564140D1*
X2627408D2*
X2801983D1*
X714022Y903545D2*
X2491774D1*
X2619664D2*
X2795894D1*
X720112Y895802D2*
X2499518D1*
X2611921D2*
X2789803D1*
X726202Y888059D2*
X2507261D1*
X2604177D2*
X2783720D1*
X732291Y880316D2*
X2515004D1*
X2596434D2*
X2777630D1*
X739497Y872573D2*
X2522748D1*
X2588692D2*
X2770425D1*
X746879Y864831D2*
X2517680D1*
X2580948D2*
X2763043D1*
X754261Y857088D2*
X2509937D1*
X2573205D2*
X2755654D1*
X761643Y849345D2*
X2502202D1*
X2565461D2*
X2748272D1*
X769025Y841602D2*
X2494458D1*
X2557718D2*
X2740890D1*
X776407Y833860D2*
X2486715D1*
X2549975D2*
X2733508D1*
X783797Y826117D2*
X2478971D1*
X2542239D2*
X2726126D1*
X791178Y818374D2*
X2471228D1*
X2534496D2*
X2718744D1*
X798560Y810631D2*
X2463486D1*
X2526752D2*
X2711362D1*
X805942Y802888D2*
X2455741D1*
X2519009D2*
X2703980D1*
X813324Y795146D2*
X2447999D1*
X2511266D2*
X2696598D1*
X820898Y787403D2*
X2440255D1*
X2503522D2*
X2689025D1*
X829833Y779660D2*
X2432512D1*
X2495780D2*
X2680089D1*
X838768Y771917D2*
X2424769D1*
X2488035D2*
X2671155D1*
X847703Y764175D2*
X2417025D1*
X2480293D2*
X2662219D1*
X856638Y756432D2*
X2409282D1*
X2472550D2*
X2653285D1*
X865573Y748689D2*
X2401538D1*
X2464806D2*
X2644349D1*
X874509Y740946D2*
X2393795D1*
X2457063D2*
X2635413D1*
X883444Y733203D2*
X2386060D1*
X2449319D2*
X2626479D1*
X892379Y725461D2*
X2378316D1*
X2441576D2*
X2617543D1*
X901314Y717718D2*
X2370573D1*
X2433833D2*
X2608609D1*
X910249Y709975D2*
X1667202D1*
X1742719D2*
X1781583D1*
X1828333D2*
X2362829D1*
X2426097D2*
X2599673D1*
X920146Y702232D2*
X1667202D1*
X1742719D2*
X1774117D1*
X1835807D2*
X2355087D1*
X2418354D2*
X2589777D1*
X931018Y694490D2*
X1667202D1*
X1742719D2*
X1769865D1*
X1840052D2*
X2347344D1*
X2410610D2*
X2578896D1*
X941891Y686747D2*
X1667202D1*
X1742719D2*
X1767703D1*
X1842220D2*
X2339600D1*
X2402867D2*
X2568024D1*
X952764Y679004D2*
X1667202D1*
X1745718D2*
X1767241D1*
X1842675D2*
X2331857D1*
X2395125D2*
X2557151D1*
X963638Y671261D2*
X1667202D1*
X1750508D2*
X1768434D1*
X1841490D2*
X2324113D1*
X2387381D2*
X2546277D1*
X974510Y663518D2*
X1667202D1*
X1755299D2*
X1771441D1*
X1838476D2*
X2316370D1*
X2379638D2*
X2535404D1*
X985391Y655776D2*
X1667202D1*
X1761528D2*
X1776877D1*
X1833039D2*
X2308627D1*
X2371894D2*
X2524531D1*
X996264Y648033D2*
X1667202D1*
X1769270D2*
X1786881D1*
X1823035D2*
X2300883D1*
X2364151D2*
X2513659D1*
X1007136Y640290D2*
X1706602D1*
X1777014D2*
X2293140D1*
X2356408D2*
X2502786D1*
X1018224Y632547D2*
X1719114D1*
X1784757D2*
X2285396D1*
X2348664D2*
X2491698D1*
X1031635Y624804D2*
X1729234D1*
X1792500D2*
X2277654D1*
X2340921D2*
X2478287D1*
X1045046Y617062D2*
X1736976D1*
X1800244D2*
X2269919D1*
X2333177D2*
X2464877D1*
X1058457Y609319D2*
X1744719D1*
X1807987D2*
X2262175D1*
X2325434D2*
X2451466D1*
X1071866Y601576D2*
X1752463D1*
X1815723D2*
X2254432D1*
X2317692D2*
X2438049D1*
X1085277Y593833D2*
X1760206D1*
X1823466D2*
X2246688D1*
X2309955D2*
X2424638D1*
X1098688Y586091D2*
X1767950D1*
X1831209D2*
X2238945D1*
X2302213D2*
X2411227D1*
X1112098Y578348D2*
X1775685D1*
X1838953D2*
X2231202D1*
X2294469D2*
X2397818D1*
X1125508Y570605D2*
X1783428D1*
X2286726D2*
X2384407D1*
X1142371Y562862D2*
X1791172D1*
X2278983D2*
X2367551D1*
X1159327Y555119D2*
X1798915D1*
X2271239D2*
X2350596D1*
X1176282Y547377D2*
X1806659D1*
X2263496D2*
X2333640D1*
X1193238Y539634D2*
X1814402D1*
X2255752D2*
X2316685D1*
X1210193Y531891D2*
X2299730D1*
X1227148Y524148D2*
X2282782D1*
X1245364Y516406D2*
X2264559D1*
X1267732Y508663D2*
X2242190D1*
X1290109Y500920D2*
X2219822D1*
X1312478Y493177D2*
X2197445D1*
X1334846Y485434D2*
X2175076D1*
X1357215Y477692D2*
X2152699D1*
X1388434Y469949D2*
X2121480D1*
X1420353Y462206D2*
X2089570D1*
X1452272Y454463D2*
X2057650D1*
X1486429Y446720D2*
X2023501D1*
X1540286Y438978D2*
X1969644D1*
X1594143Y431235D2*
X1915787D1*
X1741718Y2802765D2*
X1741092Y2798879D1*
X1740058Y2795083D1*
X1738625Y2791419D1*
X1736810Y2787927D1*
X1734634Y2784647D1*
X1732123Y2781618D1*
X1729303Y2778873D1*
X1726209Y2776442D1*
X1722873Y2774356D1*
X1719333Y2772635D1*
X1715631Y2771299D1*
X1711810Y2770366D1*
X1707909Y2769844D1*
X1703975Y2769739D1*
X1700052Y2770052D1*
X1696185Y2770782D1*
X1692419Y2771917D1*
X1688793Y2773448D1*
X1685350Y2775354D1*
X1682130Y2777617D1*
X1679169Y2780207D1*
X1676500Y2783100D1*
X1674154Y2786259D1*
X1672155Y2789648D1*
X1670529Y2793232D1*
X1669293Y2796967D1*
X1668462Y2800814D1*
X1668043Y2804727D1*
Y2808661D1*
X1668462Y2812575D1*
X1669294Y2816421D1*
X1670529Y2820156D1*
X1672155Y2823740D1*
X1674154Y2827130D1*
X1676500Y2830289D1*
X1679169Y2833181D1*
X1682130Y2835772D1*
X1685350Y2838034D1*
X1688793Y2839941D1*
X1692419Y2841471D1*
X1696186Y2842606D1*
X1700052Y2843336D1*
X1703975Y2843650D1*
X1707909Y2843545D1*
X1711810Y2843022D1*
X1715631Y2842089D1*
X1719333Y2840753D1*
X1722873Y2839033D1*
X1726209Y2836946D1*
X1729303Y2834516D1*
X1732123Y2831770D1*
X1734634Y2828741D1*
X1736810Y2825462D1*
X1738625Y2821970D1*
X1740058Y2818304D1*
X1741092Y2814509D1*
X1741718Y2810623D1*
X1741928Y2806694D1*
X1741718Y2802765D1*
X2504394Y2523160D2*
X2503768Y2519274D1*
X2502732Y2515478D1*
X2501301Y2511814D1*
X2499486Y2508322D1*
X2497310Y2505042D1*
X2494799Y2502013D1*
X2491979Y2499268D1*
X2488885Y2496837D1*
X2485549Y2494751D1*
X2482009Y2493030D1*
X2478307Y2491694D1*
X2474484Y2490761D1*
X2470584Y2490239D1*
X2466651Y2490134D1*
X2462728Y2490448D1*
X2458861Y2491177D1*
X2455094Y2492314D1*
X2451469Y2493843D1*
X2448026Y2495749D1*
X2444806Y2498012D1*
X2441845Y2500602D1*
X2439176Y2503495D1*
X2436828Y2506654D1*
X2434831Y2510043D1*
X2433205Y2513627D1*
X2431969Y2517362D1*
X2431138Y2521209D1*
X2430719Y2525122D1*
Y2529056D1*
X2431138Y2532970D1*
X2431969Y2536816D1*
X2433205Y2540551D1*
X2434831Y2544135D1*
X2436829Y2547525D1*
X2439176Y2550684D1*
X2441845Y2553576D1*
X2444806Y2556167D1*
X2448026Y2558429D1*
X2451469Y2560336D1*
X2455094Y2561866D1*
X2458862Y2563001D1*
X2462728Y2563731D1*
X2466651Y2564045D1*
X2470585Y2563940D1*
X2474486Y2563417D1*
X2478307Y2562484D1*
X2482009Y2561148D1*
X2485549Y2559428D1*
X2488885Y2557341D1*
X2491979Y2554911D1*
X2494799Y2552165D1*
X2497310Y2549136D1*
X2499486Y2545857D1*
X2501301Y2542365D1*
X2502734Y2538701D1*
X2503768Y2534904D1*
X2504394Y2531018D1*
X2504604Y2527089D1*
X2504394Y2523160D1*
X2854710Y1789773D2*
X2854084Y1785887D1*
X2853050Y1782091D1*
X2851617Y1778427D1*
X2849802Y1774934D1*
X2847626Y1771655D1*
X2845115Y1768626D1*
X2842295Y1765881D1*
X2839201Y1763450D1*
X2835865Y1761364D1*
X2832325Y1759643D1*
X2828623Y1758307D1*
X2824802Y1757374D1*
X2820902Y1756852D1*
X2816967Y1756747D1*
X2813045Y1757060D1*
X2809177Y1757790D1*
X2805411Y1758925D1*
X2801785Y1760455D1*
X2798343Y1762362D1*
X2795122Y1764625D1*
X2792161Y1767215D1*
X2789492Y1770108D1*
X2787146Y1773266D1*
X2785147Y1776656D1*
X2783521Y1780240D1*
X2782285Y1783975D1*
X2781454Y1787822D1*
X2781035Y1791735D1*
Y1795669D1*
X2781454Y1799583D1*
X2782286Y1803429D1*
X2783521Y1807164D1*
X2785147Y1810748D1*
X2787146Y1814138D1*
X2789492Y1817297D1*
X2792161Y1820189D1*
X2795122Y1822780D1*
X2798343Y1825042D1*
X2801785Y1826949D1*
X2805411Y1828479D1*
X2809178Y1829614D1*
X2813045Y1830344D1*
X2816967Y1830657D1*
X2820902Y1830552D1*
X2824802Y1830030D1*
X2828623Y1829097D1*
X2832325Y1827761D1*
X2835865Y1826041D1*
X2839201Y1823954D1*
X2842295Y1821524D1*
X2845115Y1818778D1*
X2847626Y1815749D1*
X2849802Y1812470D1*
X2851617Y1808978D1*
X2853050Y1805312D1*
X2854084Y1801517D1*
X2854710Y1797631D1*
X2854920Y1793702D1*
X2854710Y1789773D1*
X2575105Y1027097D2*
X2574479Y1023211D1*
X2573445Y1019415D1*
X2572012Y1015751D1*
X2570197Y1012259D1*
X2568021Y1008979D1*
X2565510Y1005950D1*
X2562690Y1003205D1*
X2559596Y1000774D1*
X2556260Y998688D1*
X2552720Y996967D1*
X2549018Y995631D1*
X2545197Y994698D1*
X2541297Y994176D1*
X2537362Y994071D1*
X2533440Y994385D1*
X2529573Y995114D1*
X2525806Y996251D1*
X2522180Y997780D1*
X2518738Y999686D1*
X2515517Y1001949D1*
X2512556Y1004539D1*
X2509887Y1007432D1*
X2507541Y1010591D1*
X2505542Y1013980D1*
X2503916Y1017564D1*
X2502681Y1021299D1*
X2501849Y1025146D1*
X2501430Y1029059D1*
Y1032993D1*
X2501849Y1036907D1*
X2502681Y1040753D1*
X2503916Y1044488D1*
X2505542Y1048072D1*
X2507541Y1051462D1*
X2509887Y1054621D1*
X2512556Y1057513D1*
X2515517Y1060104D1*
X2518738Y1062366D1*
X2522180Y1064273D1*
X2525806Y1065803D1*
X2529573Y1066938D1*
X2533440Y1067668D1*
X2537362Y1067982D1*
X2541297Y1067877D1*
X2545197Y1067354D1*
X2549020Y1066421D1*
X2552720Y1065085D1*
X2556260Y1063365D1*
X2559596Y1061278D1*
X2562690Y1058848D1*
X2565510Y1056102D1*
X2568021Y1053073D1*
X2570197Y1049794D1*
X2572012Y1046302D1*
X2573445Y1042638D1*
X2574480Y1038841D1*
X2575105Y1034955D1*
X2575315Y1031026D1*
X2575105Y1027097D1*
X1841718Y676781D2*
X1841092Y672895D1*
X1840058Y669098D1*
X1838625Y665434D1*
X1836810Y661942D1*
X1834634Y658663D1*
X1832123Y655634D1*
X1829303Y652888D1*
X1826209Y650458D1*
X1822873Y648371D1*
X1819333Y646651D1*
X1815631Y645315D1*
X1811810Y644382D1*
X1807909Y643860D1*
X1803975Y643755D1*
X1800052Y644068D1*
X1796185Y644798D1*
X1792419Y645933D1*
X1788793Y647463D1*
X1785350Y649370D1*
X1782130Y651633D1*
X1779169Y654223D1*
X1776500Y657115D1*
X1774154Y660274D1*
X1772155Y663664D1*
X1770529Y667248D1*
X1769293Y670983D1*
X1768462Y674829D1*
X1768043Y678743D1*
Y682677D1*
X1768462Y686591D1*
X1769294Y690437D1*
X1770529Y694172D1*
X1772155Y697756D1*
X1774154Y701146D1*
X1776500Y704304D1*
X1779169Y707197D1*
X1782130Y709787D1*
X1785350Y712050D1*
X1788793Y713957D1*
X1792419Y715487D1*
X1796186Y716622D1*
X1800052Y717352D1*
X1803975Y717665D1*
X1807909Y717560D1*
X1811810Y717038D1*
X1815631Y716105D1*
X1819333Y714769D1*
X1822873Y713049D1*
X1826209Y710962D1*
X1829303Y708531D1*
X1832123Y705786D1*
X1834634Y702757D1*
X1836810Y699478D1*
X1838625Y695986D1*
X1840058Y692320D1*
X1841092Y688525D1*
X1841718Y684639D1*
X1841928Y680710D1*
X1841718Y676781D1*
X1827239Y533232D2*
X1823436Y534247D1*
X1819882Y535928D1*
X1816686Y538219D1*
X1815521Y539303D1*
X1726126Y628698D1*
X1701808Y643741D1*
X1667991D1*
Y717678D1*
X1741928D1*
Y683864D1*
X1756972Y659542D1*
X1839976Y576539D1*
X2110459Y576537D1*
X2230173D1*
X2304513Y650874D1*
X2524873Y871232D1*
X2481912Y914196D1*
X2475913Y916319D1*
X2473257Y914394D1*
X2469925Y913213D1*
X2466394Y913056D1*
X2462971Y913938D1*
X2459953Y915785D1*
X2459155Y916514D1*
X2423828Y951841D1*
X2422253Y953781D1*
X2420782Y956996D1*
X2420314Y960500D1*
X2420888Y963987D1*
X2422458Y967155D1*
X2423818Y968778D1*
X2459161Y1004123D1*
X2461101Y1005698D1*
X2464316Y1007169D1*
X2467820Y1007638D1*
X2471307Y1007063D1*
X2474475Y1005493D1*
X2476098Y1004134D1*
X2511444Y968790D1*
X2513018Y966850D1*
X2514490Y963635D1*
X2514958Y960131D1*
X2514383Y956644D1*
X2512814Y953476D1*
X2511454Y951853D1*
X2510949Y951346D1*
X2512946Y944854D1*
X2555722Y902076D1*
X2579260Y925619D1*
X2922126Y1268487D1*
X2922125Y1671890D1*
X2860832Y1671891D1*
X2854920Y1668874D1*
Y1656734D1*
X2780983D1*
Y1730671D1*
X2854920D1*
Y1718533D1*
X2860831Y1715513D1*
X2922125D1*
Y2214983D1*
X2624307Y2512801D1*
X2583534Y2472024D1*
X2581559Y2465448D1*
X2582164Y2464841D1*
X2584268Y2462000D1*
X2585449Y2458668D1*
X2585605Y2455136D1*
X2584723Y2451714D1*
X2582877Y2448696D1*
X2582147Y2447899D1*
X2546820Y2412571D1*
X2544881Y2410996D1*
X2541665Y2409525D1*
X2538161Y2409056D1*
X2534675Y2409631D1*
X2531507Y2411201D1*
X2529883Y2412560D1*
X2494538Y2447904D1*
X2492963Y2449844D1*
X2491492Y2453059D1*
X2491024Y2456563D1*
X2491598Y2460050D1*
X2493168Y2463218D1*
X2494528Y2464841D1*
X2529871Y2500186D1*
X2531811Y2501761D1*
X2535026Y2503232D1*
X2538530Y2503701D1*
X2542017Y2503126D1*
X2545186Y2501555D1*
X2546514Y2500482D1*
X2552445Y2502626D1*
X2593462Y2543644D1*
X2226238Y2910867D1*
X1826769D1*
X1826770Y2849575D1*
X1829787Y2843663D1*
X1841928D1*
Y2769726D1*
X1767991D1*
Y2843663D1*
X1780129D1*
X1783148Y2849573D1*
Y2910867D1*
X1689189D1*
X1635038Y2856715D1*
Y2762403D1*
X1634684Y2758487D1*
X1634054Y2756219D1*
X1634055Y2731270D1*
X1634341Y2730472D1*
X1634980Y2726592D1*
X1635038Y2725001D1*
Y2667915D1*
X1634684Y2663999D1*
X1634054Y2661731D1*
Y2649214D1*
X1633682Y2645301D1*
X1632583Y2641526D1*
X1630794Y2638026D1*
X1628378Y2634924D1*
X1625424Y2632332D1*
X1622034Y2630341D1*
X1618331Y2629022D1*
X1614445Y2628423D1*
X1610517Y2628564D1*
X1606685Y2629441D1*
X1603085Y2631024D1*
X1599848Y2633253D1*
X1597087Y2636051D1*
X1594902Y2639319D1*
X1593367Y2642938D1*
X1592542Y2646782D1*
X1592400Y2649214D1*
Y2661438D1*
X1592113Y2662444D1*
X1591474Y2666324D1*
X1591416Y2667915D1*
Y2725001D1*
X1591770Y2728917D1*
X1592400Y2731185D1*
Y2755927D1*
X1592113Y2756932D1*
X1591474Y2760811D1*
X1591416Y2762403D1*
Y2865732D1*
X1591734Y2869458D1*
X1592748Y2873256D1*
X1594429Y2876811D1*
X1596720Y2880005D1*
X1597804Y2881172D1*
X1664722Y2948089D1*
X1667580Y2950499D1*
X1670984Y2952467D1*
X1674685Y2953793D1*
X1678564Y2954432D1*
X1680156Y2954490D1*
X2235257D1*
X2238983Y2954172D1*
X2242782Y2953156D1*
X2246336Y2951476D1*
X2249531Y2949185D1*
X2250697Y2948101D1*
X2959348Y2239451D1*
X2961756Y2236593D1*
X2963724Y2233189D1*
X2965050Y2229487D1*
X2965689Y2225608D1*
X2965747Y2224017D1*
Y1259467D1*
X2965429Y1255741D1*
X2964415Y1251942D1*
X2962734Y1248388D1*
X2960442Y1245193D1*
X2959358Y1244028D1*
X2254647Y539316D1*
X2251787Y536906D1*
X2248383Y534937D1*
X2244681Y533612D1*
X2240802Y532972D1*
X2239211Y532915D1*
X1830962D1*
X1827239Y533232D1*
X681125Y1884096D2*
X641427D1*
X637501Y1884357D1*
X633644Y1885134D1*
X629925Y1886415D1*
X626407Y1888176D1*
X623152Y1890387D1*
X620219Y1893009D1*
X617659Y1895996D1*
X615516Y1899294D1*
X613828Y1902848D1*
X612625Y1906593D1*
X611927Y1910466D1*
X611748Y1914395D1*
X612089Y1918315D1*
X612946Y1922155D1*
X614304Y1925846D1*
X616138Y1929328D1*
X618416Y1932535D1*
X621098Y1935413D1*
X624136Y1937911D1*
X627480Y1939986D1*
X631067Y1941600D1*
X634837Y1942726D1*
X638723Y1943343D1*
X641427Y1943466D1*
X684734D1*
X688659Y1943205D1*
X692516Y1942428D1*
X696235Y1941147D1*
X699753Y1939386D1*
X703008Y1937175D1*
X705941Y1934552D1*
X708501Y1931566D1*
X710644Y1928268D1*
X712332Y1924714D1*
X713535Y1920969D1*
X714234Y1917096D1*
X714412Y1913167D1*
X714071Y1909247D1*
X713214Y1905407D1*
X711856Y1901715D1*
X710022Y1898234D1*
X707744Y1895026D1*
X705062Y1892148D1*
X702024Y1889651D1*
X698680Y1887576D1*
X695093Y1885962D1*
X691323Y1884836D1*
X687437Y1884219D1*
X684734Y1884096D1*
X681125D1*
Y1543938D2*
X641427D1*
X637501Y1544199D1*
X633644Y1544976D1*
X629925Y1546257D1*
X626407Y1548018D1*
X623152Y1550230D1*
X620219Y1552852D1*
X617659Y1555839D1*
X615516Y1559138D1*
X613828Y1562690D1*
X612625Y1566437D1*
X611927Y1570308D1*
X611748Y1574239D1*
X612089Y1578157D1*
X612948Y1581997D1*
X614304Y1585689D1*
X616138Y1589171D1*
X618416Y1592378D1*
X621098Y1595256D1*
X624138Y1597755D1*
X627480Y1599828D1*
X631068Y1601442D1*
X634837Y1602568D1*
X638723Y1603185D1*
X641427Y1603308D1*
X684734D1*
X688659Y1603047D1*
X692516Y1602270D1*
X696235Y1600990D1*
X699753Y1599228D1*
X703008Y1597017D1*
X705941Y1594395D1*
X708501Y1591408D1*
X710644Y1588109D1*
X712332Y1584556D1*
X713535Y1580810D1*
X714234Y1576938D1*
X714412Y1573008D1*
X714071Y1569089D1*
X713213Y1565249D1*
X711856Y1561558D1*
X710022Y1558076D1*
X707744Y1554869D1*
X705062Y1551991D1*
X702022Y1549492D1*
X698680Y1547419D1*
X695092Y1545804D1*
X691323Y1544678D1*
X687437Y1544062D1*
X684734Y1543938D1*
X681125D1*
X506387Y1884096D2*
X486702D1*
X482777Y1884357D1*
X478920Y1885134D1*
X475201Y1886415D1*
X471682Y1888176D1*
X468428Y1890387D1*
X465495Y1893009D1*
X462934Y1895996D1*
X460791Y1899295D1*
X459104Y1902848D1*
X457900Y1906594D1*
X457202Y1910466D1*
X457024Y1914396D1*
X457365Y1918315D1*
X458223Y1922155D1*
X459580Y1925846D1*
X461413Y1929328D1*
X463692Y1932535D1*
X466374Y1935413D1*
X469413Y1937912D1*
X472756Y1939986D1*
X476344Y1941600D1*
X480113Y1942726D1*
X483999Y1943343D1*
X486702Y1943466D1*
X510324D1*
X514249Y1943205D1*
X518106Y1942428D1*
X521825Y1941147D1*
X525344Y1939386D1*
X528598Y1937175D1*
X531531Y1934552D1*
X534092Y1931566D1*
X536235Y1928266D1*
X537923Y1924714D1*
X539126Y1920967D1*
X539824Y1917096D1*
X540003Y1913165D1*
X539661Y1909247D1*
X538803Y1905407D1*
X537446Y1901715D1*
X535613Y1898234D1*
X533335Y1895026D1*
X530652Y1892148D1*
X527613Y1889650D1*
X524270Y1887576D1*
X520682Y1885962D1*
X516913Y1884836D1*
X513028Y1884219D1*
X510324Y1884096D1*
X506387D1*
Y1543938D2*
X486702D1*
X482777Y1544199D1*
X478920Y1544976D1*
X475201Y1546257D1*
X471682Y1548018D1*
X468428Y1550230D1*
X465495Y1552852D1*
X462934Y1555839D1*
X460791Y1559138D1*
X459104Y1562690D1*
X457900Y1566437D1*
X457202Y1570308D1*
X457024Y1574239D1*
X457365Y1578157D1*
X458223Y1581997D1*
X459580Y1585689D1*
X461413Y1589171D1*
X463692Y1592378D1*
X466374Y1595256D1*
X469413Y1597755D1*
X472756Y1599828D1*
X476344Y1601442D1*
X480113Y1602568D1*
X483999Y1603185D1*
X486702Y1603308D1*
X510324D1*
X514249Y1603047D1*
X518106Y1602270D1*
X521825Y1600990D1*
X525344Y1599228D1*
X528598Y1597017D1*
X531531Y1594395D1*
X534092Y1591408D1*
X536235Y1588109D1*
X537923Y1584556D1*
X539126Y1580810D1*
X539824Y1576938D1*
X540003Y1573008D1*
X539661Y1569089D1*
X538803Y1565249D1*
X537446Y1561558D1*
X535613Y1558076D1*
X533335Y1554869D1*
X530652Y1551991D1*
X527613Y1549492D1*
X524270Y1547419D1*
X520682Y1545804D1*
X516913Y1544678D1*
X513028Y1544062D1*
X510324Y1543938D1*
X506387D1*
X666665Y1853562D2*
X665751Y1849785D1*
X664257Y1846197D1*
X662220Y1842887D1*
X659692Y1839938D1*
X656731Y1837420D1*
X653415Y1835395D1*
X649822Y1833916D1*
X646041Y1833016D1*
X642167Y1832718D1*
X638294Y1833030D1*
X634517Y1833945D1*
X630929Y1835438D1*
X627619Y1837475D1*
X624671Y1840004D1*
X622152Y1842965D1*
X620127Y1846281D1*
X618648Y1849874D1*
X617748Y1853655D1*
X617450Y1857529D1*
X617762Y1861402D1*
X618677Y1865178D1*
X620171Y1868766D1*
X622207Y1872076D1*
X624736Y1875025D1*
X627697Y1877543D1*
X631013Y1879568D1*
X634606Y1881047D1*
X638387Y1881948D1*
X642261Y1882245D1*
X646134Y1881933D1*
X649911Y1881018D1*
X653499Y1879525D1*
X656808Y1877488D1*
X659757Y1874959D1*
X662276Y1871999D1*
X664301Y1868682D1*
X665780Y1865089D1*
X666680Y1861308D1*
X666978Y1857482D1*
X666665Y1853562D1*
Y1626003D2*
X665751Y1622226D1*
X664257Y1618638D1*
X662220Y1615328D1*
X659692Y1612379D1*
X656731Y1609861D1*
X653415Y1607836D1*
X649822Y1606357D1*
X646041Y1605457D1*
X642167Y1605159D1*
X638294Y1605471D1*
X634517Y1606386D1*
X630929Y1607879D1*
X627619Y1609916D1*
X624671Y1612445D1*
X622152Y1615406D1*
X620127Y1618722D1*
X618648Y1622315D1*
X617748Y1626096D1*
X617450Y1629970D1*
X617762Y1633843D1*
X618677Y1637619D1*
X620171Y1641207D1*
X622207Y1644517D1*
X624736Y1647466D1*
X627697Y1649984D1*
X631013Y1652009D1*
X634606Y1653488D1*
X638387Y1654388D1*
X642261Y1654686D1*
X646134Y1654374D1*
X649911Y1653459D1*
X653499Y1651966D1*
X656808Y1649929D1*
X659757Y1647400D1*
X662276Y1644440D1*
X664301Y1641123D1*
X665780Y1637530D1*
X666680Y1633749D1*
X666978Y1629923D1*
X666665Y1626003D1*
X1487089Y1219923D2*
X1329605D1*
X1250865Y1219927D1*
X1247243Y1219923D1*
X1172125D1*
Y1306852D1*
X1337794Y1306848D1*
X1376849Y1306852D1*
X1495274D1*
X1574014Y1306848D1*
X1613070Y1306852D1*
X1731495D1*
X1810235Y1306848D1*
X1849290Y1306852D1*
X1967715D1*
X2046455Y1306848D1*
X2085510Y1306852D1*
X2203936D1*
X2361416D1*
X2440156D1*
Y1219923D1*
X2282676D1*
X2195747Y1219927D1*
X2184251Y1219923D1*
X2038266D1*
X1959526Y1219927D1*
X1948030Y1219923D1*
X1802046D1*
X1723306Y1219927D1*
X1711810Y1219923D1*
X1565825D1*
X1557025D1*
X1545864Y1208203D1*
X1545865Y1168702D1*
X1545381Y1164806D1*
X1543955Y1161146D1*
X1541675Y1157945D1*
X1535705Y1151954D1*
X1427424Y1043673D1*
X1425483Y1040156D1*
X1425415Y1039789D1*
X1424304Y1035988D1*
X1422495Y1032466D1*
X1420052Y1029350D1*
X1417063Y1026753D1*
X1413636Y1024769D1*
X1409898Y1023469D1*
X1405979Y1022900D1*
X1402024Y1023083D1*
X1398175Y1024012D1*
X1394571Y1025651D1*
X1391343Y1027944D1*
X1388606Y1030806D1*
X1386461Y1034134D1*
X1384984Y1037807D1*
X1384230Y1041694D1*
X1384224Y1045654D1*
X1384969Y1049542D1*
X1386434Y1053220D1*
X1388571Y1056554D1*
X1391299Y1059424D1*
X1394521Y1061724D1*
X1398121Y1063374D1*
X1401257Y1064139D1*
X1404934Y1066169D1*
X1514051Y1175289D1*
X1514054Y1208383D1*
X1503609Y1219920D1*
X1487085Y1219923D1*
Y1219927D1*
X1723306Y2267482D2*
X2440156D1*
Y2180552D1*
X1416534D1*
X1172125D1*
Y2267482D1*
X1723302D1*
X1963331Y2547505D2*
X1964470Y2546850D1*
X1965529Y2546077D1*
X1966496Y2545192D1*
X1967362Y2544206D1*
X1968114Y2543131D1*
X1968744Y2541982D1*
X1969244Y2540769D1*
X1969609Y2539509D1*
X1969835Y2538217D1*
X1969916Y2536907D1*
X1969854Y2535597D1*
X1969650Y2534302D1*
X1969304Y2533035D1*
X1969005Y2532235D1*
X1941849Y2466673D1*
X1941272Y2465495D1*
X1940570Y2464387D1*
X1939749Y2463364D1*
X1938823Y2462436D1*
X1937801Y2461614D1*
X1936694Y2460909D1*
X1935517Y2460331D1*
X1934283Y2459883D1*
X1933009Y2459575D1*
X1931709Y2459407D1*
X1930396Y2459382D1*
X1929091Y2459501D1*
X1927806Y2459762D1*
X1926556Y2460163D1*
X1922612Y2461791D1*
X1860777Y2487404D1*
X1859594Y2487971D1*
X1858482Y2488665D1*
X1857450Y2489476D1*
X1856514Y2490395D1*
X1855685Y2491411D1*
X1854972Y2492512D1*
X1854383Y2493684D1*
X1853927Y2494913D1*
X1853606Y2496186D1*
X1853428Y2497486D1*
X1853394Y2498797D1*
X1853501Y2500104D1*
X1853753Y2501391D1*
X1854143Y2502644D1*
X1856308Y2507891D1*
X1881455Y2568604D1*
X1882033Y2569781D1*
X1882735Y2570888D1*
X1883555Y2571913D1*
X1884482Y2572841D1*
X1885504Y2573663D1*
X1886612Y2574366D1*
X1887787Y2574946D1*
X1889021Y2575392D1*
X1890295Y2575702D1*
X1891597Y2575870D1*
X1892908Y2575894D1*
X1894214Y2575776D1*
X1895500Y2575513D1*
X1896749Y2575113D1*
X1900693Y2573484D1*
X1962517Y2547877D1*
X1963331Y2547505D1*
X2051280Y2475438D2*
X2050793Y2471551D1*
X2049988Y2467717D1*
X2048869Y2463963D1*
X2047442Y2460314D1*
X2045720Y2456794D1*
X2043714Y2453429D1*
X2041436Y2450241D1*
X2038903Y2447253D1*
X2036131Y2444484D1*
X2033142Y2441953D1*
X2029951Y2439678D1*
X2026585Y2437675D1*
X2023066Y2435954D1*
X2019415Y2434531D1*
X2015660Y2433416D1*
X2011825Y2432613D1*
X2007937Y2432130D1*
X2004022Y2431970D1*
X2000109Y2432133D1*
X1996220Y2432619D1*
X1992387Y2433424D1*
X1988633Y2434543D1*
X1984983Y2435970D1*
X1981465Y2437692D1*
X1978100Y2439698D1*
X1974912Y2441975D1*
X1971924Y2444509D1*
X1969154Y2447281D1*
X1966623Y2450270D1*
X1964348Y2453461D1*
X1962344Y2456827D1*
X1960625Y2460346D1*
X1959202Y2463997D1*
X1958085Y2467752D1*
X1957283Y2471587D1*
X1956799Y2475475D1*
X1956639Y2479390D1*
X1956803Y2483303D1*
X1957289Y2487192D1*
X1958094Y2491025D1*
X1959214Y2494780D1*
X1960639Y2498429D1*
X1962361Y2501948D1*
X1964367Y2505312D1*
X1966646Y2508500D1*
X1969178Y2511488D1*
X1971950Y2514257D1*
X1974941Y2516789D1*
X1978130Y2519064D1*
X1981496Y2521068D1*
X1985017Y2522787D1*
X1988667Y2524210D1*
X1992423Y2525327D1*
X1996257Y2526129D1*
X2000144Y2526613D1*
X2004059Y2526773D1*
X2007974Y2526609D1*
X2011861Y2526123D1*
X2015696Y2525318D1*
X2019449Y2524198D1*
X2023098Y2522773D1*
X2026618Y2521051D1*
X2029983Y2519045D1*
X2033169Y2516766D1*
X2036159Y2514234D1*
X2038928Y2511462D1*
X2041458Y2508471D1*
X2043734Y2505282D1*
X2045738Y2501916D1*
X2047457Y2498395D1*
X2048881Y2494745D1*
X2049996Y2490990D1*
X2050799Y2487155D1*
X2051282Y2483268D1*
X2051442Y2479371D1*
X2051280Y2475438D1*
X2236056Y2398904D2*
X2235570Y2395017D1*
X2234765Y2391182D1*
X2233646Y2387428D1*
X2232219Y2383780D1*
X2230497Y2380260D1*
X2228491Y2376895D1*
X2226213Y2373707D1*
X2223680Y2370719D1*
X2220908Y2367950D1*
X2217919Y2365419D1*
X2214728Y2363144D1*
X2211362Y2361140D1*
X2207843Y2359420D1*
X2204192Y2357997D1*
X2200437Y2356882D1*
X2196602Y2356079D1*
X2192714Y2355596D1*
X2188799Y2355436D1*
X2184886Y2355598D1*
X2180997Y2356085D1*
X2177164Y2356890D1*
X2173409Y2358009D1*
X2169760Y2359436D1*
X2166241Y2361157D1*
X2162877Y2363164D1*
X2159689Y2365441D1*
X2156701Y2367975D1*
X2153932Y2370745D1*
X2151400Y2373736D1*
X2149125Y2376927D1*
X2147121Y2380293D1*
X2145402Y2383812D1*
X2143979Y2387463D1*
X2142862Y2391218D1*
X2142060Y2395052D1*
X2141576Y2398941D1*
X2141416Y2402856D1*
X2141580Y2406769D1*
X2142066Y2410657D1*
X2142871Y2414491D1*
X2143991Y2418245D1*
X2145416Y2421895D1*
X2147138Y2425413D1*
X2149144Y2428778D1*
X2151423Y2431966D1*
X2153955Y2434954D1*
X2156727Y2437723D1*
X2159718Y2440255D1*
X2162907Y2442530D1*
X2166273Y2444534D1*
X2169794Y2446253D1*
X2173444Y2447676D1*
X2177199Y2448793D1*
X2181034Y2449594D1*
X2184921Y2450077D1*
X2188836Y2450239D1*
X2192751Y2450075D1*
X2196638Y2449589D1*
X2200472Y2448783D1*
X2204226Y2447664D1*
X2207875Y2446239D1*
X2211395Y2444517D1*
X2214760Y2442510D1*
X2217948Y2440232D1*
X2220936Y2437699D1*
X2223705Y2434928D1*
X2226235Y2431937D1*
X2228510Y2428748D1*
X2230514Y2425382D1*
X2232235Y2421861D1*
X2233657Y2418211D1*
X2234773Y2414455D1*
X2235576Y2410621D1*
X2236059Y2406734D1*
X2236219Y2402837D1*
X2236056Y2398904D1*
X2173387Y1034782D2*
X2172121Y1034440D1*
X2170824Y1034239D1*
X2169513Y1034180D1*
X2168205Y1034265D1*
X2166913Y1034493D1*
X2165654Y1034861D1*
X2164442Y1035365D1*
X2163294Y1035997D1*
X2162222Y1036752D1*
X2161238Y1037619D1*
X2160354Y1038591D1*
X2159584Y1039651D1*
X2158933Y1040790D1*
X2158577Y1041567D1*
X2131421Y1107129D1*
X2130996Y1108370D1*
X2130710Y1109650D1*
X2130566Y1110954D1*
X2130564Y1112265D1*
X2130707Y1113570D1*
X2130991Y1114850D1*
X2131413Y1116092D1*
X2131970Y1117280D1*
X2132652Y1118400D1*
X2133454Y1119438D1*
X2134364Y1120383D1*
X2135371Y1121222D1*
X2136466Y1121946D1*
X2137633Y1122546D1*
X2141572Y1124184D1*
X2203407Y1149797D1*
X2204644Y1150231D1*
X2205923Y1150529D1*
X2207224Y1150684D1*
X2208537Y1150696D1*
X2209841Y1150563D1*
X2211123Y1150290D1*
X2212369Y1149877D1*
X2213562Y1149331D1*
X2214686Y1148657D1*
X2215732Y1147864D1*
X2216684Y1146962D1*
X2217531Y1145961D1*
X2218265Y1144873D1*
X2218874Y1143710D1*
X2219547Y1142108D1*
X2246164Y1077848D1*
X2246600Y1076610D1*
X2246896Y1075333D1*
X2247051Y1074030D1*
X2247063Y1072719D1*
X2246930Y1071413D1*
X2246657Y1070131D1*
X2246244Y1068886D1*
X2245698Y1067693D1*
X2245025Y1066568D1*
X2244232Y1065522D1*
X2243329Y1064571D1*
X2242328Y1063723D1*
X2241240Y1062991D1*
X2240077Y1062381D1*
X2238475Y1061707D1*
X2174226Y1035094D1*
X2173387Y1034782D1*
X2143661Y1050241D2*
X2143176Y1046354D1*
X2142370Y1042521D1*
X2141251Y1038766D1*
X2139825Y1035117D1*
X2138104Y1031597D1*
X2136097Y1028234D1*
X2133819Y1025046D1*
X2131286Y1022056D1*
X2128514Y1019287D1*
X2125524Y1016757D1*
X2122335Y1014482D1*
X2118969Y1012478D1*
X2115448Y1010759D1*
X2111798Y1009335D1*
X2108042Y1008219D1*
X2104207Y1007416D1*
X2100320Y1006933D1*
X2096406Y1006773D1*
X2092491Y1006936D1*
X2088604Y1007423D1*
X2084769Y1008228D1*
X2081016Y1009346D1*
X2077366Y1010773D1*
X2073846Y1012495D1*
X2070482Y1014501D1*
X2067295Y1016780D1*
X2064306Y1019312D1*
X2061537Y1022084D1*
X2059007Y1025073D1*
X2056731Y1028264D1*
X2054727Y1031630D1*
X2053008Y1035150D1*
X2051584Y1038801D1*
X2050469Y1042555D1*
X2049665Y1046390D1*
X2049182Y1050278D1*
X2049022Y1054193D1*
X2049185Y1058106D1*
X2049672Y1061995D1*
X2050476Y1065828D1*
X2051596Y1069583D1*
X2053022Y1073232D1*
X2054744Y1076751D1*
X2056751Y1080115D1*
X2059029Y1083303D1*
X2061562Y1086291D1*
X2064333Y1089062D1*
X2067323Y1091592D1*
X2070513Y1093867D1*
X2073879Y1095871D1*
X2077399Y1097591D1*
X2081050Y1099013D1*
X2084804Y1100130D1*
X2088639Y1100933D1*
X2092528Y1101416D1*
X2096442Y1101576D1*
X2100356Y1101412D1*
X2104244Y1100927D1*
X2108077Y1100121D1*
X2111832Y1099001D1*
X2115482Y1097576D1*
X2119000Y1095854D1*
X2122365Y1093848D1*
X2125552Y1091570D1*
X2128541Y1089037D1*
X2131311Y1086265D1*
X2133841Y1083274D1*
X2136117Y1080085D1*
X2138121Y1076719D1*
X2139840Y1073198D1*
X2141262Y1069549D1*
X2142379Y1065793D1*
X2143181Y1061958D1*
X2143665Y1058071D1*
X2143825Y1054175D1*
X2143661Y1050241D1*
X1958887Y973703D2*
X1958400Y969816D1*
X1957594Y965982D1*
X1956475Y962228D1*
X1955050Y958579D1*
X1953328Y955059D1*
X1951322Y951694D1*
X1949043Y948507D1*
X1946510Y945518D1*
X1943739Y942749D1*
X1940749Y940218D1*
X1937559Y937944D1*
X1934193Y935940D1*
X1930673Y934219D1*
X1927022Y932797D1*
X1923268Y931681D1*
X1919433Y930878D1*
X1915545Y930395D1*
X1911630Y930235D1*
X1907717Y930398D1*
X1903828Y930885D1*
X1899995Y931689D1*
X1896240Y932808D1*
X1892591Y934235D1*
X1889072Y935957D1*
X1885707Y937963D1*
X1882520Y940240D1*
X1879530Y942774D1*
X1876761Y945546D1*
X1874231Y948535D1*
X1871955Y951726D1*
X1869951Y955092D1*
X1868232Y958612D1*
X1866810Y962262D1*
X1865693Y966017D1*
X1864890Y969852D1*
X1864407Y973740D1*
X1864247Y977655D1*
X1864411Y981568D1*
X1864896Y985457D1*
X1865702Y989290D1*
X1866822Y993045D1*
X1868247Y996694D1*
X1869969Y1000213D1*
X1871975Y1003577D1*
X1874253Y1006765D1*
X1876786Y1009753D1*
X1879558Y1012522D1*
X1882549Y1015054D1*
X1885738Y1017329D1*
X1889104Y1019333D1*
X1892623Y1021052D1*
X1896274Y1022475D1*
X1900030Y1023592D1*
X1903865Y1024394D1*
X1907752Y1024878D1*
X1911667Y1025038D1*
X1915581Y1024874D1*
X1919469Y1024388D1*
X1923302Y1023583D1*
X1927056Y1022463D1*
X1930706Y1021038D1*
X1934224Y1019316D1*
X1937589Y1017310D1*
X1940777Y1015031D1*
X1943766Y1012499D1*
X1946535Y1009727D1*
X1949066Y1006736D1*
X1951341Y1003547D1*
X1953345Y1000181D1*
X1955064Y996660D1*
X1956487Y993010D1*
X1957604Y989255D1*
X1958407Y985420D1*
X1958890Y981533D1*
X1959050Y977636D1*
X1958887Y973703D1*
X1905436Y3057769D2*
X1779248Y3063781D1*
X1730673Y3063780D1*
X1604482Y3057768D1*
X1480144Y3039891D1*
X1358064Y3010276D1*
X1239346Y2969188D1*
X1125077Y2917003D1*
X1016294Y2854196D1*
X913961Y2781325D1*
X819022Y2699062D1*
X732335Y2608144D1*
X654681Y2509400D1*
X586769Y2403727D1*
X529203Y2292066D1*
X482517Y2175450D1*
X447125Y2054911D1*
X423622Y1932971D1*
Y1554434D1*
X447125Y1432487D1*
X482517Y1311954D1*
X529202Y1195339D1*
X586769Y1083677D1*
X654685Y977997D1*
X732335Y879259D1*
X819021Y788344D1*
X913965Y706073D1*
X1016293Y633207D1*
X1125076Y570402D1*
X1239352Y518214D1*
X1358063Y477126D1*
X1480136Y447513D1*
X1604484Y429635D1*
X1730672Y423623D1*
X1779249Y423622D1*
X1905438Y429634D1*
X2029785Y447512D1*
X2151857Y477126D1*
X2270575Y518214D1*
X2384843Y570402D1*
X2493634Y633211D1*
X2595961Y706077D1*
X2690898Y788343D1*
X2777585Y879260D1*
X2855235Y977997D1*
X2923154Y1083682D1*
X2980717Y1195339D1*
X3027403Y1311955D1*
X3062795Y1432493D1*
X3086568Y1555844D1*
X3098509Y1680888D1*
Y1806514D1*
X3086567Y1931560D1*
X3062793Y2054917D1*
X3027402Y2175450D1*
X2980715Y2292064D1*
X2923150Y2403727D1*
X2855238Y2509400D1*
X2777580Y2608150D1*
X2690891Y2699066D1*
X2595959Y2781324D1*
X2493626Y2854196D1*
X2384843Y2917003D1*
X2270568Y2969190D1*
X2151856Y3010277D1*
X2029782Y3039891D1*
X1905434Y3057770D1*
X1215589Y1306836D2*
Y1219938D1*
X1172140Y1263387D2*
X1215589D1*
Y2180568D2*
Y2267466D1*
Y2224017D2*
X1172140D1*
X1929789Y2561425D2*
X1893516Y2473850D1*
X1867865Y2535774D2*
X1955440Y2499501D1*
X2206949Y1048656D2*
X2170673Y1136231D1*
X2232598Y1110581D2*
X2145024Y1074306D1*
D21*
X1704959Y2806694D3*
D22*
X1804959D3*
D21*
X2467635Y2527089D3*
D81*
X2538346Y2456379D3*
D21*
X2817951Y1793702D3*
D22*
Y1693702D3*
D21*
X2538347Y1031026D3*
D84*
X2467636Y960316D3*
D21*
X1804959Y680710D3*
D22*
X1704959D3*
D26*
X663080Y1913781D3*
Y1573623D3*
D27*
X498513Y1913781D3*
Y1573623D3*
D32*
X1215589Y1263387D3*
X1294329D3*
X1373070D3*
X1451810D3*
X1530550D3*
X1609290D3*
X1688030D3*
X1766770D3*
X1845510D3*
X1924251D3*
X2002991D3*
X2081731D3*
X2160471D3*
X2239211D3*
X2317951D3*
X2396692D3*
Y2224017D3*
X2317951D3*
X2239211D3*
X2160471D3*
X2081731D3*
X2002991D3*
X1924251D3*
X1845510D3*
X1766770D3*
X1688030D3*
X1609290D3*
X1530550D3*
X1451810D3*
X1373070D3*
X1294329D3*
X1215589D3*
D87*
X1911652Y2517638D3*
D33*
X2004041Y2479371D3*
X2188818Y2402837D3*
D90*
X2188811Y1092443D3*
D33*
X2096424Y1054174D3*
X1911648Y977636D3*
M02*
