G04 DipTrace 4.2.0.1*
G04 BoardOutline.gbr*
%MOIN*%
G04 #@! TF.FileFunction,Profile*
G04 #@! TF.Part,Single*
%ADD12C,0.005512*%
%FSLAX26Y26*%
G04*
G70*
G90*
G75*
G01*
G04 BoardOutline*
%LPD*%
X1779959Y3093702D2*
D12*
X1908285Y3087589D1*
X2035449Y3069306D1*
X2160298Y3039017D1*
X2281703Y2996999D1*
X2398566Y2943630D1*
X2509824Y2879394D1*
X2614474Y2804874D1*
X2711566Y2720743D1*
X2800220Y2627764D1*
X2879636Y2526778D1*
X2949093Y2418702D1*
X3007962Y2304512D1*
X3055710Y2185244D1*
X3091904Y2061976D1*
X3116218Y1935827D1*
X3128430Y1807938D1*
Y1679466D1*
X3116218Y1551577D1*
X3091906Y1425428D1*
X3055711Y1302160D1*
X3007963Y1182892D1*
X2949094Y1068702D1*
X2879638Y960625D1*
X2800222Y859640D1*
X2711567Y766661D1*
X2614475Y682530D1*
X2509825Y608009D1*
X2398566Y543774D1*
X2281705Y490404D1*
X2160299Y448386D1*
X2035450Y418097D1*
X1908286Y399814D1*
X1779961Y393701D1*
X1729959Y393702D1*
X1601634Y399815D1*
X1474470Y418098D1*
X1349621Y448386D1*
X1228215Y490406D1*
X1111353Y543774D1*
X1000094Y608009D1*
X895445Y682530D1*
X798353Y766661D1*
X709697Y859640D1*
X630282Y960625D1*
X560825Y1068702D1*
X501955Y1182891D1*
X454209Y1302160D1*
X418013Y1425428D1*
X393701Y1551577D1*
Y1935827D1*
X418014Y2061976D1*
X454209Y2185244D1*
X501957Y2304512D1*
X560825Y2418702D1*
X630282Y2526778D1*
X709698Y2627764D1*
X798353Y2720743D1*
X895446Y2804874D1*
X1000096Y2879394D1*
X1111354Y2943630D1*
X1228217Y2996999D1*
X1349622Y3039017D1*
X1474471Y3069304D1*
X1601635Y3087588D1*
X1729961Y3093701D1*
X1779959Y3093702D1*
M02*
