M48
INCH
T01C0.0079
T02C0.0236
T03C0.0256
T04C0.028
T05C0.0315
T06C0.0394
%
T01
X+016132Y+027437
X+016132Y+027280
X+016132Y+027122
X+016132Y+026965
X+016132Y+026807
X+016132Y+026650
X+016132Y+026492
X+015550Y+026437
X+014550Y+026437
X+014550Y+027437
X+015550Y+027437
X+015550Y+028437
X+014550Y+028437
X+013550Y+028437
X+012550Y+028437
X+011550Y+027437
X+011550Y+026437
X+010550Y+026437
X+010550Y+025437
X+011550Y+025437
X+012550Y+025437
X+013550Y+025437
X+014550Y+024437
X+014550Y+023437
X+015550Y+023437
X+015550Y+024437
X+017550Y+024437
X+018550Y+024437
X+018550Y+023437
X+017550Y+023437
X+017550Y+025437
X+018550Y+025437
X+018550Y+026437
X+018550Y+027437
X+017550Y+027437
X+017550Y+026437
X+019550Y+026437
X+020550Y+026437
X+020550Y+025437
X+021550Y+025437
X+021550Y+026437
X+021550Y+027437
X+020550Y+027437
X+019550Y+027437
X+019550Y+028437
X+020550Y+028437
X+021550Y+028437
X+022550Y+028437
X+022550Y+027437
X+022550Y+026437
X+023550Y+026437
X+024550Y+026437
X+023550Y+025437
X+022550Y+025437
X+023550Y+024437
X+024550Y+024437
X+024550Y+023437
X+023550Y+023437
X+022550Y+023437
X+021550Y+023437
X+021550Y+024437
X+020550Y+024437
X+020550Y+023437
X+019550Y+023437
X+019550Y+021437
X+019550Y+020437
X+019550Y+019437
X+020550Y+019437
X+020550Y+020437
X+021550Y+020437
X+021550Y+019437
X+021550Y+018437
X+021550Y+017437
X+021550Y+016437
X+020550Y+016437
X+019550Y+016437
X+019550Y+017437
X+020550Y+017437
X+020550Y+018437
X+019550Y+018437
X+018550Y+018437
X+018550Y+017437
X+018550Y+016437
X+017550Y+016437
X+016550Y+016437
X+016550Y+017437
X+017550Y+017437
X+017550Y+018437
X+018550Y+019437
X+017550Y+020437
X+016550Y+020437
X+016550Y+021437
X+017550Y+021437
X+018550Y+021437
X+020550Y+021437
X+021550Y+021437
X+022550Y+021437
X+022550Y+020437
X+022550Y+019437
X+023550Y+019437
X+023550Y+020437
X+024550Y+020437
X+024550Y+019437
X+024550Y+018437
X+024550Y+017437
X+024550Y+016437
X+023550Y+016437
X+022550Y+016437
X+022550Y+017437
X+023550Y+017437
X+023550Y+018437
X+022550Y+018437
X+022550Y+015437
X+022550Y+014437
X+022550Y+013437
X+023550Y+013437
X+024550Y+013437
X+024550Y+014437
X+023550Y+014437
X+023550Y+015437
X+024550Y+015437
X+025550Y+015437
X+025550Y+014437
X+025550Y+013437
X+026550Y+013437
X+027550Y+013437
X+027550Y+014437
X+026550Y+014437
X+026550Y+015437
X+027550Y+015437
X+028550Y+015437
X+028550Y+014437
X+028550Y+013437
X+028550Y+012437
X+027550Y+012437
X+027550Y+011437
X+026550Y+011437
X+025550Y+011437
X+025550Y+012437
X+026550Y+012437
X+026550Y+010437
X+027550Y+009437
X+026550Y+008437
X+025550Y+007437
X+024550Y+008437
X+023550Y+008437
X+023550Y+009437
X+022550Y+009437
X+022550Y+008437
X+022550Y+007437
X+023550Y+007437
X+024550Y+006437
X+022550Y+006437
X+021550Y+006437
X+020550Y+006437
X+019550Y+006437
X+019550Y+007437
X+020550Y+007437
X+021550Y+007437
X+021550Y+008437
X+020550Y+008437
X+020550Y+009437
X+021550Y+009437
X+022550Y+010437
X+023550Y+010437
X+024550Y+010437
X+024550Y+011437
X+024550Y+012437
X+023550Y+011437
X+022550Y+011437
X+021550Y+013437
X+020550Y+013437
X+019550Y+013437
X+019550Y+014437
X+019550Y+015437
X+020550Y+015437
X+020550Y+014437
X+021550Y+014437
X+021550Y+015437
X+018550Y+015437
X+017550Y+015437
X+016550Y+015437
X+016550Y+014437
X+017550Y+014437
X+018550Y+014437
X+018550Y+013437
X+017550Y+013437
X+016550Y+013437
X+015550Y+013437
X+014550Y+013437
X+014550Y+014437
X+013550Y+014437
X+013550Y+013437
X+012550Y+013437
X+012550Y+011437
X+012550Y+010437
X+012550Y+009437
X+012550Y+008437
X+011550Y+007437
X+010550Y+007437
X+010550Y+008437
X+009550Y+008437
X+009550Y+009437
X+008550Y+009437
X+008550Y+010437
X+008550Y+011437
X+007550Y+011437
X+007550Y+010437
X+006550Y+011437
X+006550Y+012437
X+005550Y+012437
X+005550Y+013437
X+006550Y+013437
X+006550Y+014437
X+005550Y+014437
X+005550Y+015437
X+004550Y+015437
X+004550Y+014437
X+004550Y+016437
X+004550Y+017437
X+004550Y+018437
X+005550Y+018437
X+005550Y+017437
X+005550Y+016437
X+007550Y+015437
X+007550Y+014437
X+007550Y+013437
X+008550Y+013437
X+008550Y+014437
X+009550Y+014437
X+009550Y+015437
X+008550Y+015437
X+008550Y+016437
X+008550Y+017437
X+008550Y+018437
X+009550Y+018437
X+009550Y+017437
X+009550Y+016437
X+010550Y+016437
X+010550Y+017437
X+010550Y+018437
X+011550Y+018437
X+012550Y+018437
X+012550Y+017437
X+011550Y+017437
X+011550Y+016437
X+012550Y+016437
X+013550Y+016437
X+013550Y+017437
X+013550Y+018437
X+014550Y+018437
X+014550Y+017437
X+015550Y+018437
X+015550Y+019437
X+014550Y+019437
X+013550Y+019437
X+013550Y+020437
X+013550Y+021437
X+014550Y+021437
X+014550Y+020437
X+015550Y+020437
X+015550Y+021437
X+016550Y+019437
X+015550Y+016437
X+015550Y+015437
X+015550Y+014437
X+014550Y+015437
X+011550Y+015437
X+010550Y+015437
X+010550Y+014437
X+009550Y+013437
X+009550Y+012437
X+008550Y+012437
X+007550Y+012437
X+009550Y+011437
X+009550Y+010437
X+010550Y+011437
X+010550Y+012437
X+011550Y+011437
X+013550Y+011437
X+014050Y+010437
X+015550Y+010437
X+015550Y+011437
X+016550Y+011437
X+016550Y+010437
X+017550Y+010437
X+018550Y+010437
X+018550Y+011437
X+017550Y+011437
X+019550Y+011437
X+019550Y+010437
X+019550Y+009437
X+019550Y+008437
X+018550Y+008437
X+018550Y+009437
X+017550Y+008437
X+016550Y+009437
X+015550Y+009437
X+015550Y+008437
X+015550Y+006437
X+015550Y+005437
X+015550Y+004437
X+016550Y+004437
X+016550Y+005437
X+017550Y+005437
X+017550Y+004437
X+018550Y+004437
X+019550Y+004437
X+014550Y+005437
X+013550Y+005437
X+013550Y+006437
X+014550Y+006437
X+012550Y+006437
X+012550Y+005437
X+011550Y+006437
X+011550Y+019437
X+011550Y+020437
X+011550Y+021437
X+012550Y+021437
X+012550Y+020437
X+012550Y+019437
X+010550Y+019437
X+010550Y+020437
X+010550Y+021437
X+009550Y+021437
X+008550Y+021437
X+008550Y+020437
X+008550Y+019437
X+009550Y+019437
X+009550Y+020437
X+009550Y+022437
X+008550Y+022437
X+008550Y+023437
X+009550Y+023437
X+009550Y+024437
X+008550Y+024437
X+009550Y+025437
X+010550Y+024437
X+011550Y+024437
X+011550Y+023437
X+011550Y+022437
X+010550Y+022437
X+010550Y+023437
X+012550Y+023437
X+013550Y+023437
X+006550Y+023437
X+006550Y+022437
X+005550Y+022437
X+005550Y+021437
X+006550Y+021437
X+006550Y+020437
X+005550Y+020437
X+005550Y+019437
X+004550Y+019437
X+004550Y+020437
X+015550Y+030437
X+016550Y+030437
X+017550Y+030437
X+018550Y+030437
X+019550Y+030437
X+018550Y+028437
X+023550Y+027437
X+025550Y+027437
X+026550Y+026437
X+027550Y+025437
X+026550Y+024437
X+026550Y+023437
X+027550Y+023437
X+027550Y+022437
X+026550Y+022437
X+025550Y+022437
X+025550Y+023437
X+026550Y+021437
X+027550Y+021437
X+027550Y+020437
X+027550Y+019437
X+026550Y+019437
X+025550Y+019437
X+025550Y+020437
X+026550Y+020437
X+026550Y+018437
X+027550Y+018437
X+027550Y+017437
X+027550Y+016437
X+026550Y+016437
X+025550Y+016437
X+025550Y+017437
X+025550Y+018437
X+026550Y+017437
X+028550Y+016437
X+030550Y+016437
X+030550Y+017437
X+030550Y+018437
X+030550Y+019437
X+030550Y+020437
X+028550Y+020437
X+028550Y+019437
X+028550Y+018437
X+028550Y+021437
X+028550Y+022437
X+028550Y+024437
X+023550Y+021437
X+030550Y+015437
X+030550Y+014437
X+028550Y+010437
T02
X+006414Y+019138G85X+006847Y+019138
X+004867Y+019138G85X+005103Y+019138
X+004867Y+015736G85X+005103Y+015736
X+006414Y+015736G85X+006847Y+015736
T04
X+017050Y+028067
X+018050Y+028067
X+024676Y+025271
X+025383Y+024564
X+028180Y+017937
X+028180Y+016937
X+025383Y+010310
X+024676Y+009603
X+018050Y+006807
X+017050Y+006807
T05
X+012156Y+012634
X+012943Y+012634
X+013731Y+012634
X+014518Y+012634
X+015305Y+012634
X+016093Y+012634
X+016880Y+012634
X+017668Y+012634
X+018455Y+012634
X+019243Y+012634
X+020030Y+012634
X+020817Y+012634
X+021605Y+012634
X+022392Y+012634
X+023180Y+012634
X+023967Y+012634
X+023967Y+022240
X+023180Y+022240
X+022392Y+022240
X+021605Y+022240
X+020817Y+022240
X+020030Y+022240
X+019243Y+022240
X+018455Y+022240
X+017668Y+022240
X+016880Y+022240
X+016093Y+022240
X+015305Y+022240
X+014518Y+022240
X+013731Y+022240
X+012943Y+022240
X+012156Y+022240
T06
X+019117Y+025176
X+020040Y+024794
X+021888Y+024028
X+021888Y+010924
X+020964Y+010542
X+019116Y+009776
T00
M30
